<svg xmlns:xlink="http://www.w3.org/1999/xlink" width="1133" height="804" xmlns:ev="http://www.w3.org/2001/xml-events" xmlns="http://www.w3.org/2000/svg" viewBox="0 0 1133 804"><defs/><g id="page1" transform="translate(5.5,5.5)"><rect width="1123" height="794" y="0" fill="#ffffff" x="0"/><g id="shape1" transform="translate(542.309000,207.026000)"><path stroke-width="1" d="M.0,.0L.0,-70.9L315.0,-70.9" fill="none" stroke="#191919"/><path stroke-width="1" d="M315.0,-73.9L321.0,-70.9L315.0,-67.9L315.0,-73.9" fill="#191919" stroke-linecap="round" stroke="#191919"/></g><g id="shape2" transform="translate(259.260000,253.026000)"><path stroke-width="1" d="M.0,.0L239.0,.0" fill="none" stroke="#191919"/><path stroke-width="1" d="M239.0,-3.0L245.0,.0L239.0,3.0L239.0,-3.0" fill="#191919" stroke-linecap="round" stroke="#191919"/></g><g id="shape3" transform="translate(384.049000,377.675000)"><text style="fill:#191919;font-family:Arial;font-size:12.00pt;font-weight:bold" xml:space="preserve"><tspan y="23.5" x="24.5">Absorber</tspan></text></g><g id="shape4" transform="translate(328.760000,235.100000)"><path d="M.0,.0L103.0,.0L103.0,35.0L.0,35.0L.0,.0z" fill-rule="nonzero" stroke-width="1" fill="#ffffff" stroke="#000000"/><text style="fill:#191919;font-family:Arial;font-size:10.00pt" xml:space="preserve"><tspan y="22.5" x="13.0">Aqueous NH</tspan><tspan textLength="4.0" style="font-size:6.50pt" y="25.1" x="86.0">3</tspan></text></g><g id="shape5" transform="translate(674.260000,119.100000)"><path d="M.0,.0L76.0,.0L76.0,35.0L.0,35.0L.0,.0z" fill-rule="nonzero" stroke-width="1" fill="#ffffff" stroke="#000000"/><text style="fill:#191919;font-family:Arial;font-size:10.00pt" xml:space="preserve"><tspan y="22.5" x="9.0">Clean gas</tspan></text></g><g id="shape6" transform="translate(505.892380,514.277000)"><path stroke-width="1" d="M-8.0,.0L-246.6,.0" fill="none" stroke="#191919"/><path stroke-width="1" d="M-8.0,-4.0L.0,.0L-8.0,4.0L-8.0,-4.0" fill="#191919" stroke-linecap="round" stroke="#191919"/></g><g id="shape7" transform="translate(342.260000,497.100000)"><path d="M.0,.0L76.0,.0L76.0,35.0L.0,35.0L.0,.0z" fill-rule="nonzero" stroke-width="1" fill="#ffffff" stroke="#000000"/><text style="fill:#191919;font-family:Arial;font-size:10.00pt" xml:space="preserve"><tspan y="22.5" x="13.0">Flue gas</tspan></text></g><g id="group8" transform="translate(504.309000,207.026000)"><path d="M.0,349.0C3.3,360.0,19.3,368.0,38.0,368.0C56.7,368.0,72.7,360.0,76.0,349.0L76.0,19.0C72.7,8.0,56.7,.0,38.0,.0C19.3,.0,3.3,8.0,.0,19.0L.0,349.0z" fill-rule="nonzero" stroke-width="1" id="shape9" fill="#ffffff" stroke="#000000"/><g id="shape10" transform="translate(0.000000,85.782300)"><path d="M.0,.0L76.0,.0L76.0,90.0L.0,90.0L.0,.0z" fill-rule="nonzero" fill="#ffffff"/><path stroke-width="1" d="M.0,.0L76.0,.0L76.0,90.0L.0,90.0L.0,.0zM.0,.0L76.0,90.0M76.0,.0L.0,90.0" fill="none" stroke="#000000"/></g><g id="shape11" transform="translate(0.000000,215.604000)"><path d="M.0,.0L76.0,.0L76.0,92.0L.0,92.0L.0,.0z" fill-rule="nonzero" fill="#ffffff"/><path stroke-width="1" d="M.0,.0L76.0,.0L76.0,92.0L.0,92.0L.0,.0zM.0,.0L76.0,92.0M76.0,.0L.0,92.0" fill="none" stroke="#000000"/></g></g><g id="shape12" transform="translate(542.309000,575.026000)"><path stroke-width="1" d="M.0,.0L.0,77.6L188.2,77.6" fill="none" stroke="#191919"/><path stroke-width="1" d="M188.2,74.6L194.2,77.6L188.2,80.6L188.2,74.6" fill="#191919" stroke-linecap="round" stroke="#191919"/></g><g id="shape13" transform="translate(596.520000,635.100000)"><path d="M.0,.0L76.0,.0L76.0,35.0L.0,35.0L.0,.0z" fill-rule="nonzero" stroke-width="1" fill="#ffffff" stroke="#000000"/><text style="fill:#191919;font-family:Arial;font-size:10.00pt" xml:space="preserve"><tspan y="22.5" x="14.0">Rich out</tspan></text></g><path d="M.0,22.0C.0,34.2,9.8,44.0,22.0,44.0C34.2,44.0,44.0,34.2,44.0,22.0C44.0,9.8,34.2,.0,22.0,.0C9.8,-0.0,.0,9.8,.0,22.0zM8.8,39.6L.0,48.4L44.0,48.4L35.2,39.6C26.7,45.5,17.3,45.5,8.8,39.6z" fill-rule="nonzero" stroke-width="1" id="shape14" fill="#ffffff" transform="translate(736.520000,630.600000)" stroke="#000000"/><g id="shape15" transform="translate(780.520000,652.600000)"><path stroke-width="1" d="M.0,.0L19.3,.0L19.3,-160.9L71.0,-160.9" fill="none" stroke="#191919"/><path stroke-width="1" d="M71.0,-163.9L77.0,-160.9L71.0,-157.9L71.0,-163.9" fill="#191919" stroke-linecap="round" stroke="#191919"/></g><g id="shape16" transform="translate(762.520000,527.026000)"><path d="M.0,.0L76.0,.0L76.0,48.0L.0,48.0L.0,.0z" fill-rule="nonzero" stroke-width="1" fill="#ffffff" stroke="#000000"/><text style="fill:#191919;font-family:Arial;font-size:10.00pt" xml:space="preserve"><tspan y="21.0" x="17.0">To urea</tspan><tspan y="37.0" x="18.0">reactor</tspan></text></g></g></svg>