<svg xmlns:xlink="http://www.w3.org/1999/xlink" height="804" viewBox="0 0 1133 804" width="1133" xmlns:ev="http://www.w3.org/2001/xml-events" xmlns="http://www.w3.org/2000/svg"><defs/><g transform="translate(5.5,5.5)" id="page1"><rect y="0" height="794" x="0" width="1123" fill="#ffffff"/><g transform="translate(756.000000,261.225394)" id="group1"><path stroke-width="1" d="M.0,357.3C3.3,368.1,19.1,376.0,37.5,376.0C55.9,376.0,71.7,368.1,75.0,357.3L75.0,18.8C71.7,7.9,55.9,-0.0,37.5,-0.0C19.1,-0.0,3.3,7.9,.0,18.8L.0,357.3z" stroke="#000000" fill-rule="nonzero" id="shape2" fill="#ffffff"/><g transform="translate(0.000000,87.647104)" id="shape3"><path d="M.0,.0L75.0,.0L75.0,91.9L.0,91.9L.0,.0z" fill-rule="nonzero" fill="#ffffff"/><path stroke-width="1" d="M.0,.0L75.0,.0L75.0,91.9L.0,91.9L.0,.0zM.0,.0L75.0,91.9M75.0,.0L.0,91.9" stroke="#000000" fill="none"/></g><g transform="translate(0.000000,220.291256)" id="shape4"><path d="M.0,.0L75.0,.0L75.0,94.0L.0,94.0L.0,.0z" fill-rule="nonzero" fill="#ffffff"/><path stroke-width="1" d="M.0,.0L75.0,.0L75.0,94.0L.0,94.0L.0,.0zM.0,.0L75.0,94.0M75.0,.0L.0,94.0" stroke="#000000" fill="none"/></g></g><g transform="matrix(-1.000000,0.000000,0.000000,1.000000,301.500000,95.225394)" id="shape5"><path d="M.0,63.0L63.0,50.4L63.0,12.6L.0,.0L.0,63.0z" fill-rule="nonzero" fill="#ffffff"/><path stroke-width="1" d="M.0,63.0L63.0,50.4L63.0,12.6L.0,.0L.0,63.0zM.0,63.0L.0,63.0z" stroke="#000000" fill="none"/></g><g transform="matrix(-1.000000,0.000000,0.000000,-1.000000,531.000000,310.225394)" id="shape6"><path d="M.0,63.0L63.0,50.4L63.0,12.6L.0,.0L.0,63.0z" fill-rule="nonzero" fill="#ffffff"/><path stroke-width="1" d="M.0,63.0L63.0,50.4L63.0,12.6L.0,.0L.0,63.0zM.0,63.0L.0,63.0z" stroke="#000000" fill="none"/></g><g transform="matrix(1.000000,0.000000,0.000000,-1.000000,194.000000,460.150591)" id="shape7"><path d="M.0,63.0L63.0,50.4L63.0,12.6L.0,.0L.0,63.0z" fill-rule="nonzero" fill="#ffffff"/><path stroke-width="1" d="M.0,63.0L63.0,50.4L63.0,12.6L.0,.0L.0,63.0zM.0,63.0L.0,63.0z" stroke="#000000" fill="none"/></g><g transform="translate(486.000000,104.225394)" id="shape8"><path d="M.0,22.5C-0.0,10.1,10.1,.0,22.5,.0C34.9,-0.0,45.0,10.1,45.0,22.5C45.0,34.9,34.9,45.0,22.5,45.0C10.1,45.0,.0,34.9,.0,22.5z" fill-rule="nonzero" fill="#ffffff"/><path stroke-width="1" d="M.0,21.9L5.6,21.9L16.9,11.3L29.3,33.8L39.4,21.9L45.0,21.9M.0,22.5C-0.0,10.1,10.1,.0,22.5,.0C34.9,-0.0,45.0,10.1,45.0,22.5C45.0,34.9,34.9,45.0,22.5,45.0C10.1,45.0,.0,34.9,.0,22.5z" stroke="#000000" fill="none"/></g><g transform="translate(220.000000,256.225394)" id="shape9"><path d="M.0,22.5C-0.0,10.1,10.1,.0,22.5,.0C34.9,-0.0,45.0,10.1,45.0,22.5C45.0,34.9,34.9,45.0,22.5,45.0C10.1,45.0,.0,34.9,.0,22.5z" fill-rule="nonzero" fill="#ffffff"/><path stroke-width="1" d="M.0,21.9L5.6,21.9L16.9,11.3L29.3,33.8L39.4,21.9L45.0,21.9M.0,22.5C-0.0,10.1,10.1,.0,22.5,.0C34.9,-0.0,45.0,10.1,45.0,22.5C45.0,34.9,34.9,45.0,22.5,45.0C10.1,45.0,.0,34.9,.0,22.5z" stroke="#000000" fill="none"/></g><g transform="translate(507.000000,406.725394)" id="shape10"><path d="M.0,22.5C-0.0,10.1,10.1,.0,22.5,.0C34.9,-0.0,45.0,10.1,45.0,22.5C45.0,34.9,34.9,45.0,22.5,45.0C10.1,45.0,.0,34.9,.0,22.5z" fill-rule="nonzero" fill="#ffffff"/><path stroke-width="1" d="M.0,21.9L5.6,21.9L16.9,11.3L29.3,33.8L39.4,21.9L45.0,21.9M.0,22.5C-0.0,10.1,10.1,.0,22.5,.0C34.9,-0.0,45.0,10.1,45.0,22.5C45.0,34.9,34.9,45.0,22.5,45.0C10.1,45.0,.0,34.9,.0,22.5z" stroke="#000000" fill="none"/></g><g transform="translate(507.000000,688.000000)" id="shape11"><path d="M.0,22.5C-0.0,10.1,10.1,.0,22.5,.0C34.9,-0.0,45.0,10.1,45.0,22.5C45.0,34.9,34.9,45.0,22.5,45.0C10.1,45.0,.0,34.9,.0,22.5z" fill-rule="nonzero" fill="#ffffff"/><path stroke-width="1" d="M.0,21.9L5.6,21.9L16.9,11.3L29.3,33.8L39.4,21.9L45.0,21.9M.0,22.5C-0.0,10.1,10.1,.0,22.5,.0C34.9,-0.0,45.0,10.1,45.0,22.5C45.0,34.9,34.9,45.0,22.5,45.0C10.1,45.0,.0,34.9,.0,22.5z" stroke="#000000" fill="none"/></g><g transform="translate(853.875000,102.000000)" id="shape12"><path d="M.0,12.0L.0,36.0L48.0,12.0L48.0,36.0L.0,12.0z" fill-rule="nonzero" fill="#ffffff"/><path stroke-width="0.3199999928474426" d="M.0,12.0L.0,36.0L48.0,12.0L48.0,36.0L.0,12.0zM24.0,24.0L24.0,.0M12.0,.0L36.0,.0" stroke="#000000" fill="none"/></g><g transform="translate(301.500000,126.725394)" id="shape13"><path stroke-width="1" d="M.0,.0L179.0,.0" stroke="#191919" fill="none"/><path stroke-width="1" d="M179.0,-3.0L185.0,.0L179.0,3.0L179.0,-3.0" stroke="#191919" stroke-linecap="round" fill="#191919"/></g><g transform="translate(531.000000,126.725394)" id="shape14"><path stroke-width="1" d="M.0,.0L59.0,.0L59.0,152.0L6.0,152.0" stroke="#191919" fill="none"/><path stroke-width="1" d="M6.0,155.0L.0,152.0L6.0,149.0L6.0,155.0" stroke="#191919" stroke-linecap="round" fill="#191919"/></g><g transform="translate(220.000000,278.725394)" id="shape15"><path stroke-width="1" d="M.0,.0L-107.0,.0L-107.0,149.9L-32.0,149.9" stroke="#191919" fill="none"/><path stroke-width="1" d="M-32.0,146.9L-26.0,149.9L-32.0,152.9L-32.0,146.9" stroke="#191919" stroke-linecap="round" fill="#191919"/></g><g transform="translate(552.000000,710.500000)" id="shape16"><path stroke-width="1" d="M.0,.0L91.0,.0L91.0,-261.3L198.0,-261.3" stroke="#191919" fill="none"/><path stroke-width="1" d="M198.0,-264.3L204.0,-261.3L198.0,-258.3L198.0,-264.3" stroke="#191919" stroke-linecap="round" fill="#191919"/></g><g transform="translate(793.500000,637.225394)" id="shape17"><path stroke-width="1" d="M.0,.0L.0,56.0L183.5,56.0" stroke="#191919" fill="none"/><path stroke-width="1" d="M183.5,53.0L189.5,56.0L183.5,59.0L183.5,53.0" stroke="#191919" stroke-linecap="round" fill="#191919"/></g><g transform="translate(529.500000,451.725394)" id="shape18"><path stroke-width="1" d="M.0,.0L.0,231.0" stroke="#191919" fill="none"/><path stroke-width="1" d="M3.0,231.0L.0,237.0L-3.0,231.0L3.0,231.0" stroke="#191919" stroke-linecap="round" fill="#191919"/></g><g transform="translate(238.000000,126.000000)" id="shape19"><path stroke-width="1" d="M-8.0,.0L-178.0,.0" stroke="#191919" fill="none"/><path stroke-width="1" d="M-8.0,-4.0L.0,.0L-8.0,4.0L-8.0,-4.0" stroke="#191919" stroke-linecap="round" fill="#191919"/></g><g transform="translate(98.500000,109.225394)" id="shape20"><path stroke-width="1" d="M.0,.0L76.0,.0L76.0,35.0L.0,35.0L.0,.0z" stroke="#000000" fill-rule="nonzero" fill="#ffffff"/><text xml:space="preserve" style="fill:#191919;font-family:Arial;font-size:10.00pt"><tspan y="22.5" x="30.0">Air</tspan></text></g><g transform="translate(336.995306,109.225394)" id="shape21"><path stroke-width="1" d="M.0,.0L113.5,.0L113.5,35.0L.0,35.0L.0,.0z" stroke="#000000" fill-rule="nonzero" fill="#ffffff"/><text xml:space="preserve" style="fill:#191919;font-family:Arial;font-size:10.00pt"><tspan y="23.0" x="5.8">Compressed air 1</tspan></text></g><g transform="translate(533.491000,165.000000)" id="shape22"><path stroke-width="1" d="M.0,.0L113.5,.0L113.5,35.0L.0,35.0L.0,.0z" stroke="#000000" fill-rule="nonzero" fill="#ffffff"/><text xml:space="preserve" style="fill:#191919;font-family:Arial;font-size:10.00pt"><tspan y="23.0" x="22.3">Cooled air 1</tspan></text></g><g transform="translate(57.000000,317.000000)" id="shape23"><path stroke-width="1" d="M.0,.0L113.5,.0L113.5,35.0L.0,35.0L.0,.0z" stroke="#000000" fill-rule="nonzero" fill="#ffffff"/><text xml:space="preserve" style="fill:#191919;font-family:Arial;font-size:10.00pt"><tspan y="23.0" x="22.3">Cooled air 2</tspan></text></g><g transform="translate(468.000000,278.725394)" id="shape24"><path stroke-width="1" d="M.0,.0L-197.0,.0" stroke="#191919" fill="none"/><path stroke-width="1" d="M-197.0,3.0L-203.0,.0L-197.0,-3.0L-197.0,3.0" stroke="#191919" stroke-linecap="round" fill="#191919"/></g><g transform="translate(309.745500,261.225394)" id="shape25"><path stroke-width="1" d="M.0,.0L113.5,.0L113.5,35.0L.0,35.0L.0,.0z" stroke="#000000" fill-rule="nonzero" fill="#ffffff"/><text xml:space="preserve" style="fill:#191919;font-family:Arial;font-size:10.00pt"><tspan y="23.0" x="5.8">Compressed air 2</tspan></text></g><g transform="translate(257.000000,428.000000)" id="shape26"><path stroke-width="1" d="M.0,.0L244.0,.0" stroke="#191919" fill="none"/><path stroke-width="1" d="M244.0,-3.0L250.0,.0L244.0,3.0L244.0,-3.0" stroke="#191919" stroke-linecap="round" fill="#191919"/></g><g transform="translate(309.745500,411.150591)" id="shape27"><path stroke-width="1" d="M.0,.0L113.5,.0L113.5,35.0L.0,35.0L.0,.0z" stroke="#000000" fill-rule="nonzero" fill="#ffffff"/><text xml:space="preserve" style="fill:#191919;font-family:Arial;font-size:10.00pt"><tspan y="23.0" x="5.8">Compressed air 3</tspan></text></g><g transform="translate(529.000000,605.000000)" id="shape28"><path stroke-width="1" d="M.0,.0L-266.0,.0" stroke="#191919" fill="none"/><path stroke-width="1" d="M-266.0,3.0L-272.0,.0L-266.0,-3.0L-266.0,3.0" stroke="#191919" stroke-linecap="round" fill="#191919"/></g><g transform="translate(472.745500,519.500000)" id="shape29"><path stroke-width="1" d="M.0,.0L113.5,.0L113.5,35.0L.0,35.0L.0,.0z" stroke="#000000" fill-rule="nonzero" fill="#ffffff"/><text xml:space="preserve" style="fill:#191919;font-family:Arial;font-size:10.00pt"><tspan y="23.0" x="26.3">Treated air</tspan></text></g><g transform="translate(326.245500,586.000000)" id="shape30"><path stroke-width="1" d="M.0,.0L113.5,.0L113.5,35.0L.0,35.0L.0,.0z" stroke="#000000" fill-rule="nonzero" fill="#ffffff"/><text xml:space="preserve" style="fill:#191919;font-family:Arial;font-size:10.00pt"><tspan y="23.0" x="34.8">Split air</tspan></text></g><g transform="translate(585.491000,608.000000)" id="shape31"><path stroke-width="1" d="M.0,.0L113.5,.0L113.5,35.0L.0,35.0L.0,.0z" stroke="#000000" fill-rule="nonzero" fill="#ffffff"/><text xml:space="preserve" style="fill:#191919;font-family:Arial;font-size:10.00pt"><tspan y="23.0" x="29.3">HPC feed</tspan></text></g><g transform="translate(831.491000,675.500000)" id="shape32"><path stroke-width="1" d="M.0,.0L113.5,.0L113.5,35.0L.0,35.0L.0,.0z" stroke="#000000" fill-rule="nonzero" fill="#ffffff"/><text xml:space="preserve" style="fill:#191919;font-family:Arial;font-size:10.00pt"><tspan y="23.0" x="32.3">Bottoms</tspan></text></g><g transform="translate(793.500000,261.225394)" id="shape33"><path stroke-width="1" d="M.0,.0L.0,-135.2L54.4,-135.2" stroke="#191919" fill="none"/><path stroke-width="1" d="M54.4,-138.2L60.4,-135.2L54.4,-132.2L54.4,-138.2" stroke="#191919" stroke-linecap="round" fill="#191919"/></g><g transform="translate(736.745500,165.000000)" id="shape34"><path stroke-width="1" d="M.0,.0L113.5,.0L113.5,35.0L.0,35.0L.0,.0z" stroke="#000000" fill-rule="nonzero" fill="#ffffff"/><text xml:space="preserve" style="fill:#191919;font-family:Arial;font-size:10.00pt"><tspan y="23.0" x="50.3">N</tspan><tspan y="25.6" textLength="4.0" style="font-size:6.50pt" x="59.3">2</tspan></text></g><g transform="translate(901.000000,125.000000)" id="shape35"><path stroke-width="1" d="M.0,.0L151.0,.0" stroke="#191919" fill="none"/><path stroke-width="1" d="M151.0,-3.0L157.0,.0L151.0,3.0L151.0,-3.0" stroke="#191919" stroke-linecap="round" fill="#191919"/></g><g transform="translate(922.491000,108.500000)" id="shape36"><path stroke-width="1" d="M.0,.0L113.5,.0L113.5,35.0L.0,35.0L.0,.0z" stroke="#000000" fill-rule="nonzero" fill="#ffffff"/><text xml:space="preserve" style="fill:#191919;font-family:Arial;font-size:10.00pt"><tspan y="23.0" x="17.3">To HB reactor</tspan></text></g><g transform="translate(210.000000,48.000000)" id="shape37"><text xml:space="preserve" style="fill:#191919;font-family:Arial;font-size:12.00pt;font-weight:bold"><tspan y="34.0" x="6.0">Compressor 1</tspan></text></g><g transform="translate(448.500000,48.000000)" id="shape38"><text xml:space="preserve" style="fill:#191919;font-family:Arial;font-size:12.00pt;font-weight:bold"><tspan y="34.0" x="28.0">Cooler 1</tspan></text></g><g transform="translate(439.500000,199.000000)" id="shape39"><text xml:space="preserve" style="fill:#191919;font-family:Arial;font-size:12.00pt;font-weight:bold"><tspan y="34.0" x="6.0">Compressor 2</tspan></text></g><g transform="translate(182.500000,199.000000)" id="shape40"><text xml:space="preserve" style="fill:#191919;font-family:Arial;font-size:12.00pt;font-weight:bold"><tspan y="34.0" x="28.0">Cooler 2</tspan></text></g><g transform="translate(165.500000,350.000000)" id="shape41"><text xml:space="preserve" style="fill:#191919;font-family:Arial;font-size:12.00pt;font-weight:bold"><tspan y="34.0" x="6.0">Compressor 3</tspan></text></g><g transform="translate(469.500000,350.000000)" id="shape42"><text xml:space="preserve" style="fill:#191919;font-family:Arial;font-size:12.00pt;font-weight:bold"><tspan y="34.0" x="28.0">Cooler 3</tspan></text></g><g transform="translate(416.000000,654.500000)" id="shape43"><text xml:space="preserve" style="fill:#191919;font-family:Arial;font-size:12.00pt;font-weight:bold"><tspan y="34.0" x="28.0">Cooler 4</tspan></text></g><g transform="translate(863.000000,400.650591)" id="shape44"><text xml:space="preserve" style="fill:#191919;font-family:Arial;font-size:12.00pt;font-weight:bold"><tspan y="24.0" x="7.0">Air separation </tspan><tspan y="44.0" x="31.5">column</tspan></text></g><g transform="translate(817.875000,48.000000)" id="shape45"><text xml:space="preserve" style="fill:#191919;font-family:Arial;font-size:12.00pt;font-weight:bold"><tspan y="34.0" x="39.5">Valve</tspan></text></g></g></svg>