<svg width="1132" height="804" xmlns:xlink="http://www.w3.org/1999/xlink" viewBox="0 0 1132 804" xmlns="http://www.w3.org/2000/svg" xmlns:ev="http://www.w3.org/2001/xml-events"><defs/><g transform="translate(5.5,5.5)" id="page1"><rect x="0" width="1123" height="794" fill="#ffffff" y="0"/><g transform="translate(60.760000,416.000000)" id="group1"><path d="M.0,.0L1001.0,.0L1001.0,264.0L.0,264.0L.0,.0z" stroke-width="1" fill="#ffffff" fill-rule="nonzero" stroke="#323232" id="shape2"/><path d="M.0,.0L59.0,.0L59.0,52.0L.0,52.0L.0,.0z" stroke-width="1" transform="translate(525.230000,29.850000)" fill="#ffffff" fill-rule="nonzero" stroke="#323232" id="shape3"/><path d="M.0,.0L59.0,.0L59.0,52.0L.0,52.0L.0,.0z" stroke-width="1" transform="translate(459.105000,29.850000)" fill="#ffffff" fill-rule="nonzero" stroke="#323232" id="shape4"/><path d="M.0,.0L59.0,.0L59.0,52.0L.0,52.0L.0,.0z" stroke-width="1" transform="translate(391.730000,29.850000)" fill="#ffffff" fill-rule="nonzero" stroke="#323232" id="shape5"/><path d="M.0,.0L67.0,.0L67.0,144.0L.0,144.0L.0,.0z" stroke-width="1" transform="translate(370.730000,81.850000)" fill="#ffffff" fill-rule="nonzero" stroke="#323232" id="shape6"/><path d="M.0,.0L67.0,.0L67.0,144.0L.0,144.0L.0,.0z" stroke-width="1" transform="translate(437.730000,81.850000)" fill="#ffffff" fill-rule="nonzero" stroke="#323232" id="shape7"/><path d="M.0,.0L67.0,.0L67.0,144.0L.0,144.0L.0,.0z" stroke-width="1" transform="translate(504.730000,81.850000)" fill="#ffffff" fill-rule="nonzero" stroke="#323232" id="shape8"/><path d="M.0,.0L67.0,.0L67.0,144.0L.0,144.0L.0,.0z" stroke-width="1" transform="translate(571.730000,81.850000)" fill="#ffffff" fill-rule="nonzero" stroke="#323232" id="shape9"/><path d="M.0,.0L19.5,.0L19.5,11.0L.0,11.0L.0,.0z" stroke-width="1" transform="translate(394.480000,225.850000)" fill="#ffffff" fill-rule="nonzero" stroke="#323232" id="shape10"/><path d="M.0,.0L19.5,.0L19.5,11.0L.0,11.0L.0,.0z" stroke-width="1" transform="translate(461.480000,225.850000)" fill="#ffffff" fill-rule="nonzero" stroke="#323232" id="shape11"/><path d="M.0,.0L19.5,.0L19.5,11.0L.0,11.0L.0,.0z" stroke-width="1" transform="translate(528.480000,225.850000)" fill="#ffffff" fill-rule="nonzero" stroke="#323232" id="shape12"/><path d="M.0,.0L19.5,.0L19.5,11.0L.0,11.0L.0,.0z" stroke-width="1" transform="translate(595.480000,225.850000)" fill="#ffffff" fill-rule="nonzero" stroke="#323232" id="shape13"/><path d="M.0,.0L19.5,.0L19.5,11.0L.0,11.0L.0,.0z" stroke-width="1" transform="translate(427.980000,225.850000)" fill="#ffffff" fill-rule="nonzero" stroke="#323232" id="shape14"/><path d="M.0,.0L19.5,.0L19.5,11.0L.0,11.0L.0,.0z" stroke-width="1" transform="translate(494.980000,225.850000)" fill="#ffffff" fill-rule="nonzero" stroke="#323232" id="shape15"/><path d="M.0,.0L19.5,.0L19.5,11.0L.0,11.0L.0,.0z" stroke-width="1" transform="translate(561.980000,225.850000)" fill="#ffffff" fill-rule="nonzero" stroke="#323232" id="shape16"/><path stroke-width="1" d="M.0,.0L.0,-144.0" transform="translate(404.230000,225.850000)" fill="none" stroke="#191919" id="shape17"/><path stroke-width="1" d="M.0,.0L.0,-144.0" transform="translate(471.230000,225.850000)" fill="none" stroke="#191919" id="shape18"/><path stroke-width="1" d="M.0,.0L.0,-144.0" transform="translate(538.230000,225.850000)" fill="none" stroke="#191919" id="shape19"/><path stroke-width="1" d="M.0,.0L.0,-144.0" transform="translate(605.230000,225.850000)" fill="none" stroke="#191919" id="shape20"/><path d="M.0,.0L33.5,.0L33.5,144.0L.0,144.0L.0,.0z" stroke-width="1" transform="translate(605.230000,81.850000)" fill="#ffffff" fill-rule="nonzero" stroke="#323232" id="shape21"/><path stroke-width="1" d="M.0,.0L.0,21.0" transform="translate(621.980000,225.850000)" fill="none" stroke="#191919" id="shape22"/><path stroke-width="1" d="M.0,.0L-355.3,.0" transform="translate(621.980000,246.850000)" fill="none" stroke="#191919" id="shape23"/><path stroke-width="1" d="M.0,.0L119.0,.0" transform="matrix(-1.000000,0.000000,0.000000,-1.000000,385.730000,236.850000)" fill="none" stroke="#191919" id="shape24"/><path stroke-width="1" d="M.0,.0L-2.0,.0L-2.0,11.0" transform="translate(387.730000,225.850000)" fill="none" stroke="#191919" id="shape25"/><path stroke-width="1" d="M.0,.0L52.0,.0" transform="matrix(0.000000,-1.000000,1.000000,0.000000,383.480000,81.850000)" fill="none" stroke="#191919" id="shape26"/><path stroke-width="1" d="M.0,.0L-116.8,.0" transform="translate(383.480000,29.850000)" fill="none" stroke="#191919" id="shape27"/><path stroke-width="1" d="M.0,.0L52.0,.0" transform="matrix(0.000000,-1.000000,1.000000,0.000000,592.105000,81.850000)" fill="none" stroke="#191919" id="shape28"/><path stroke-width="1" d="M.0,.0L320.0,.0" transform="matrix(-1.000000,0.000000,0.000000,-1.000000,586.730000,19.850000)" fill="none" stroke="#191919" id="shape29"/><path stroke-width="1" d="M.0,.0L-5.4,.0L-5.4,-10.0" transform="translate(592.105000,29.850000)" fill="none" stroke="#191919" id="shape30"/><path stroke-width="1" d="M.0,.0L29.0,.0" transform="matrix(0.000000,-1.000000,1.000000,0.000000,416.480000,81.850000)" fill="none" stroke="#191919" id="shape31"/><path stroke-width="1" d="M.0,.0L29.0,.0" transform="matrix(0.000000,-1.000000,1.000000,0.000000,425.480000,81.850000)" fill="none" stroke="#191919" id="shape32"/><path d="M.0,.0L25.3,.0L25.3,29.0L.0,29.0L.0,.0z" stroke-width="1" transform="translate(425.480000,52.850000)" fill="#ffffff" fill-rule="nonzero" stroke="#323232" id="shape33"/><path d="M.0,.0L25.3,.0L25.3,29.0L.0,29.0L.0,.0z" stroke-width="1" transform="translate(492.855000,52.850000)" fill="#ffffff" fill-rule="nonzero" stroke="#323232" id="shape34"/><path d="M.0,.0L25.3,.0L25.3,29.0L.0,29.0L.0,.0z" stroke-width="1" transform="translate(558.980000,52.850000)" fill="#ffffff" fill-rule="nonzero" stroke="#323232" id="shape35"/><path stroke-width="1" d="M.0,.0L8.3,.0" transform="translate(442.480000,42.850000)" fill="none" stroke="#191919" id="shape36"/><path stroke-width="1" d="M.0,.0L.0,-10.0L26.0,-10.0" transform="translate(416.480000,52.850000)" fill="none" stroke="#191919" id="shape37"/><path stroke-width="1" d="M.0,.0L29.0,.0" transform="matrix(0.000000,1.000000,-1.000000,0.000000,483.480000,52.850000)" fill="none" stroke="#191919" id="shape38"/><path d="M.0,.0L25.3,.0L25.3,29.0L.0,29.0L.0,.0z" stroke-width="1" transform="translate(459.105000,52.850000)" fill="#ffffff" fill-rule="nonzero" stroke="#323232" id="shape39"/><path stroke-width="1" d="M.0,.0L58.0,.0" transform="translate(459.730000,42.850000)" fill="none" stroke="#191919" id="shape40"/><path d="M.0,.0L25.3,.0L25.3,29.0L.0,29.0L.0,.0z" stroke-width="1" transform="translate(525.230000,52.850000)" fill="#ffffff" fill-rule="nonzero" stroke="#323232" id="shape41"/><path stroke-width="1" d="M.0,.0L58.0,.0" transform="translate(525.730000,42.850000)" fill="none" stroke="#191919" id="shape42"/><path stroke-width="1" d="M.0,.0L139.0,.0" transform="translate(592.730000,42.850000)" fill="none" stroke="#191919" id="shape43"/><path stroke-width="1" d="M.0,.0L139.0,.0" transform="translate(592.730000,52.850000)" fill="none" stroke="#191919" id="shape44"/><path stroke-width="1" d="M.0,.0L8.0,.0" transform="translate(370.490000,104.850000)" fill="none" stroke="#191919" id="shape45"/><path stroke-width="1" d="M.0,.0L8.0,.0" transform="translate(370.490000,202.850000)" fill="none" stroke="#191919" id="shape46"/><path stroke-width="1" d="M.0,.0L.0,98.0" transform="translate(378.490000,104.850000)" fill="none" stroke="#191919" id="shape47"/><path stroke-width="1" d="M.0,.0L8.0,.0" transform="translate(630.490000,202.850000)" fill="none" stroke="#191919" id="shape48"/><path stroke-width="1" d="M.0,.0L8.0,.0" transform="translate(630.490000,104.850000)" fill="none" stroke="#191919" id="shape49"/><path stroke-width="1" d="M.0,.0L.0,98.0" transform="translate(630.490000,104.850000)" fill="none" stroke="#191919" id="shape50"/><g transform="translate(426.425500,142.781400)" id="shape51"><path d="M.0,.0L23.4,.0L23.4,22.1L.0,22.1L.0,.0z" fill="#ffffff" fill-rule="nonzero"/><text style="fill:#191919;font-family:Arial,PingFang SC,Mircrosoft YaHei,Arial;font-size:12.00pt" xml:space="preserve"><tspan x="6.2" style="font-family:Arial,PingFang SC,Mircrosoft YaHei,Arial" y="17.6">B</tspan></text></g><g transform="translate(493.050500,142.781400)" id="shape52"><path d="M.0,.0L23.4,.0L23.4,22.1L.0,22.1L.0,.0z" fill="#ffffff" fill-rule="nonzero"/><text style="fill:#191919;font-family:Arial,PingFang SC,Mircrosoft YaHei,Arial;font-size:12.00pt" xml:space="preserve"><tspan x="6.2" style="font-family:Arial,PingFang SC,Mircrosoft YaHei,Arial" y="17.6">B</tspan></text></g><g transform="translate(559.925500,142.781400)" id="shape53"><path d="M.0,.0L23.4,.0L23.4,22.1L.0,22.1L.0,.0z" fill="#ffffff" fill-rule="nonzero"/><text style="fill:#191919;font-family:Arial,PingFang SC,Mircrosoft YaHei,Arial;font-size:12.00pt" xml:space="preserve"><tspan x="6.2" style="font-family:Arial,PingFang SC,Mircrosoft YaHei,Arial" y="17.6">B</tspan></text></g><g transform="translate(370.730100,204.850000)" id="shape54"><text style="fill:#191919;font-family:Arial,PingFang SC,Mircrosoft YaHei,Arial;font-size:12.00pt" xml:space="preserve"><tspan x="14.4" style="font-family:Arial,PingFang SC,Mircrosoft YaHei,Arial" y="15.0">-</tspan></text></g><g transform="translate(404.490100,204.850000)" id="shape55"><text style="fill:#191919;font-family:Arial,PingFang SC,Mircrosoft YaHei,Arial;font-size:12.00pt" xml:space="preserve"><tspan x="12.4" style="font-family:Arial,PingFang SC,Mircrosoft YaHei,Arial" y="15.0">+</tspan></text></g><g transform="translate(438.250100,204.850000)" id="shape56"><text style="fill:#191919;font-family:Arial,PingFang SC,Mircrosoft YaHei,Arial;font-size:12.00pt" xml:space="preserve"><tspan x="14.4" style="font-family:Arial,PingFang SC,Mircrosoft YaHei,Arial" y="15.0">-</tspan></text></g><g transform="translate(472.010100,204.850000)" id="shape57"><text style="fill:#191919;font-family:Arial,PingFang SC,Mircrosoft YaHei,Arial;font-size:12.00pt" xml:space="preserve"><tspan x="12.4" style="font-family:Arial,PingFang SC,Mircrosoft YaHei,Arial" y="15.0">+</tspan></text></g><g transform="translate(504.470100,204.850000)" id="shape58"><text style="fill:#191919;font-family:Arial,PingFang SC,Mircrosoft YaHei,Arial;font-size:12.00pt" xml:space="preserve"><tspan x="14.4" style="font-family:Arial,PingFang SC,Mircrosoft YaHei,Arial" y="15.0">-</tspan></text></g><g transform="translate(538.230100,204.850000)" id="shape59"><text style="fill:#191919;font-family:Arial,PingFang SC,Mircrosoft YaHei,Arial;font-size:12.00pt" xml:space="preserve"><tspan x="12.4" style="font-family:Arial,PingFang SC,Mircrosoft YaHei,Arial" y="15.0">+</tspan></text></g><g transform="translate(571.470100,204.850000)" id="shape60"><text style="fill:#191919;font-family:Arial,PingFang SC,Mircrosoft YaHei,Arial;font-size:12.00pt" xml:space="preserve"><tspan x="14.4" style="font-family:Arial,PingFang SC,Mircrosoft YaHei,Arial" y="15.0">-</tspan></text></g><g transform="translate(605.230100,204.850000)" id="shape61"><text style="fill:#191919;font-family:Arial,PingFang SC,Mircrosoft YaHei,Arial;font-size:12.00pt" xml:space="preserve"><tspan x="12.4" style="font-family:Arial,PingFang SC,Mircrosoft YaHei,Arial" y="15.0">+</tspan></text></g><g transform="translate(341.371500,136.281400)" id="shape62"><path d="M.0,.0L23.4,.0L23.4,35.1L.0,35.1L.0,.0z" fill="#ffffff" fill-rule="nonzero"/><text style="fill:#191919;font-family:Arial,PingFang SC,Mircrosoft YaHei,Arial;font-size:12.00pt" xml:space="preserve"><tspan x="9.2" style="font-family:Arial,PingFang SC,Mircrosoft YaHei,Arial" y="24.1">-</tspan></text></g><g transform="translate(644.730500,136.281400)" id="shape63"><path d="M.0,.0L23.4,.0L23.4,35.1L.0,35.1L.0,.0z" fill="#ffffff" fill-rule="nonzero"/><text style="fill:#191919;font-family:Arial,PingFang SC,Mircrosoft YaHei,Arial;font-size:12.00pt" xml:space="preserve"><tspan x="7.2" style="font-family:Arial,PingFang SC,Mircrosoft YaHei,Arial" y="24.1">+</tspan></text></g><g transform="translate(79.990000,24.700000)" id="shape64"><path stroke-width="1" d="M6.0,.0L185.0,.0" fill="none" stroke="#191919"/><path stroke-width="1" d="M6.0,3.0L.0,.0L6.0,-3.0L6.0,3.0" fill="#191919" stroke="#191919" stroke-linecap="round"/></g><g transform="matrix(-1.000000,0.000000,0.000000,1.000000,241.000000,12.000000)" id="shape65"><path d="M.0,.0L120.0,.0L120.0,26.0L.0,26.0L.0,.0z" stroke-width="1" fill="#ffffff" fill-rule="nonzero" stroke="#000000"/><text transform="matrix(-1.00,0.00,0.00,1.00,120.0,0.0)" style="fill:#191919;font-family:Arial,PingFang SC,Mircrosoft YaHei,Arial;font-size:10.00pt" xml:space="preserve"><tspan x="4.0" style="font-family:Arial,PingFang SC,Mircrosoft YaHei,Arial" y="18.0">H</tspan><tspan x="13.0" style="font-family:Arial,PingFang SC,Mircrosoft YaHei,Arial;font-size:6.50pt" textLength="4.0" y="20.6">2</tspan><tspan x="17.0" style="font-family:Arial,PingFang SC,Mircrosoft YaHei,Arial" textLength="99.0" y="18.0"> +Electroyte feed</tspan></text></g><g transform="translate(918.990000,47.850000)" id="shape66"><path stroke-width="1" d="M-6.0,.0L-185.0,.0" fill="none" stroke="#191919"/><path stroke-width="1" d="M-6.0,-3.0L.0,.0L-6.0,3.0L-6.0,-3.0" fill="#191919" stroke="#191919" stroke-linecap="round"/></g><g transform="translate(756.000000,34.000000)" id="shape67"><path d="M.0,.0L136.0,.0L136.0,26.0L.0,26.0L.0,.0z" stroke-width="1" fill="#ffffff" fill-rule="nonzero" stroke="#000000"/><text style="fill:#191919;font-family:Arial,PingFang SC,Mircrosoft YaHei,Arial;font-size:10.00pt" xml:space="preserve"><tspan x="11.5" style="font-family:Arial,PingFang SC,Mircrosoft YaHei,Arial" y="18.0">O</tspan><tspan x="21.5" style="font-family:Arial,PingFang SC,Mircrosoft YaHei,Arial;font-size:6.50pt" textLength="4.0" y="20.6">2</tspan><tspan x="25.5" style="font-family:Arial,PingFang SC,Mircrosoft YaHei,Arial" textLength="99.0" y="18.0"> +Electroyte feed</tspan></text></g><g transform="translate(78.000000,241.000000)" id="shape68"><path stroke-width="1" d="M.0,.0L179.0,.0" fill="none" stroke="#191919"/><path stroke-width="1" d="M179.0,-3.0L185.0,.0L179.0,3.0L179.0,-3.0" fill="#191919" stroke="#191919" stroke-linecap="round"/></g><g transform="translate(98.000000,226.850000)" id="shape69"><path d="M.0,.0L120.0,.0L120.0,26.0L.0,26.0L.0,.0z" stroke-width="1" fill="#ffffff" fill-rule="nonzero" stroke="#000000"/><text style="fill:#191919;font-family:Arial,PingFang SC,Mircrosoft YaHei,Arial;font-size:10.00pt" xml:space="preserve"><tspan x="16.5" style="font-family:Arial,PingFang SC,Mircrosoft YaHei,Arial" y="18.0">Electroyte feed</tspan></text></g><g transform="translate(692.000000,185.350000)" id="shape70"><text style="fill:#191919;font-family:Arial,PingFang SC,Mircrosoft YaHei,Arial;font-size:12.00pt;font-weight:bold" xml:space="preserve"><tspan x="15.5" style="font-family:Arial,PingFang SC,Mircrosoft YaHei,Arial" y="34.0">B: Bipolar plate</tspan></text></g></g><g transform="translate(676.520000,227.000000)" id="shape71"><text style="fill:#191919;font-family:Arial,PingFang SC,Mircrosoft YaHei,Arial;font-size:12.00pt;font-weight:bold" xml:space="preserve"><tspan x="13.5" style="font-family:Arial,PingFang SC,Mircrosoft YaHei,Arial" y="34.0">Alkaline electrolyzer</tspan></text></g><path stroke-width="1" d="M.0,.0L508.0,.0" transform="matrix(-0.974491,0.224428,-0.224428,-0.974491,555.520000,302.000000)" fill="none" stroke="#191919" id="shape72"/><g transform="translate(421.740000,56.000000)" id="group73"><path d="M.0,.0L12.0,.0L12.0,113.0L.0,113.0L.0,.0z" stroke-width="1" transform="translate(80.000000,113.850000)" fill="#ffffff" fill-rule="nonzero" stroke="#323232" id="shape74"/><path d="M.0,.0L16.0,.0L16.0,151.0L.0,151.0L.0,.0z" stroke-width="1" transform="translate(52.000000,94.850000)" fill="#ffffff" fill-rule="nonzero" stroke="#323232" id="shape75"/><path d="M.0,.0L12.0,.0L12.0,113.0L.0,113.0L.0,.0z" stroke-width="1" transform="translate(68.000000,113.850000)" fill="#ffffff" fill-rule="nonzero" stroke="#323232" id="shape76"/><path d="M.0,.0L12.0,.0L12.0,113.0L.0,113.0L.0,.0z" stroke-width="1" transform="translate(92.000000,113.850000)" fill="#ffffff" fill-rule="nonzero" stroke="#323232" id="shape77"/><path d="M.0,.0L12.0,.0L12.0,113.0L.0,113.0L.0,.0z" stroke-width="1" transform="translate(104.000000,113.850000)" fill="#ffffff" fill-rule="nonzero" stroke="#323232" id="shape78"/><path d="M.0,.0L12.0,.0L12.0,113.0L.0,113.0L.0,.0z" stroke-width="1" transform="translate(116.000000,113.850000)" fill="#ffffff" fill-rule="nonzero" stroke="#323232" id="shape79"/><path d="M.0,.0L12.0,.0L12.0,113.0L.0,113.0L.0,.0z" stroke-width="1" transform="translate(128.000000,113.850000)" fill="#ffffff" fill-rule="nonzero" stroke="#323232" id="shape80"/><path d="M.0,.0L12.0,.0L12.0,113.0L.0,113.0L.0,.0z" stroke-width="1" transform="translate(140.000000,113.850000)" fill="#ffffff" fill-rule="nonzero" stroke="#323232" id="shape81"/><path d="M.0,.0L12.0,.0L12.0,113.0L.0,113.0L.0,.0z" stroke-width="1" transform="translate(152.000000,113.850000)" fill="#ffffff" fill-rule="nonzero" stroke="#323232" id="shape82"/><path d="M.0,.0L12.0,.0L12.0,113.0L.0,113.0L.0,.0z" stroke-width="1" transform="translate(164.000000,113.850000)" fill="#ffffff" fill-rule="nonzero" stroke="#323232" id="shape83"/><path d="M.0,.0L12.0,.0L12.0,113.0L.0,113.0L.0,.0z" stroke-width="1" transform="translate(176.000000,113.850000)" fill="#ffffff" fill-rule="nonzero" stroke="#323232" id="shape84"/><path d="M.0,.0L12.0,.0L12.0,113.0L.0,113.0L.0,.0z" stroke-width="1" transform="translate(188.000000,113.850000)" fill="#ffffff" fill-rule="nonzero" stroke="#323232" id="shape85"/><path d="M.0,.0L16.0,.0L16.0,151.0L.0,151.0L.0,.0z" stroke-width="1" transform="translate(200.000000,94.850000)" fill="#ffffff" fill-rule="nonzero" stroke="#323232" id="shape86"/><g transform="translate(45.500000,51.850000)" id="shape87"><path d="M.0,13.5C.0,6.0,6.5,.0,14.5,.0C22.5,.0,29.0,6.0,29.0,13.5C29.0,21.0,22.5,27.0,14.5,27.0C6.5,27.0,.0,21.0,.0,13.5z" stroke-width="1" fill="#ffffff" fill-rule="nonzero" stroke="#323232"/><text style="fill:#191919;font-family:Arial,PingFang SC,Mircrosoft YaHei,Arial;font-size:12.00pt" xml:space="preserve"><tspan x="12.0" style="font-family:Arial,PingFang SC,Mircrosoft YaHei,Arial" y="20.0">-</tspan></text></g><g transform="translate(193.500000,51.850000)" id="shape88"><path d="M.0,13.5C.0,6.0,6.5,.0,14.5,.0C22.5,.0,29.0,6.0,29.0,13.5C29.0,21.0,22.5,27.0,14.5,27.0C6.5,27.0,.0,21.0,.0,13.5z" stroke-width="1" fill="#ffffff" fill-rule="nonzero" stroke="#323232"/><text style="fill:#191919;font-family:Arial,PingFang SC,Mircrosoft YaHei,Arial;font-size:12.00pt" xml:space="preserve"><tspan x="10.0" style="font-family:Arial,PingFang SC,Mircrosoft YaHei,Arial" y="20.0">+</tspan></text></g><g transform="translate(0.000000,0.000000)" id="shape89"><text style="fill:#191919;font-family:Arial,PingFang SC,Mircrosoft YaHei,Arial;font-size:12.00pt;font-weight:bold" xml:space="preserve"><tspan x="27.5" style="font-family:Arial,PingFang SC,Mircrosoft YaHei,Arial" y="24.0">Cathode</tspan></text></g><g transform="translate(148.000000,0.000000)" id="shape90"><text style="fill:#191919;font-family:Arial,PingFang SC,Mircrosoft YaHei,Arial;font-size:12.00pt;font-weight:bold" xml:space="preserve"><tspan x="35.0" style="font-family:Arial,PingFang SC,Mircrosoft YaHei,Arial" y="24.0">Anode</tspan></text></g></g><path stroke-width="1" d="M.0,.0L519.7,.0" transform="matrix(-0.975641,-0.219375,0.219375,-0.975641,1062.520000,416.000000)" fill="none" stroke="#191919" id="shape91"/><g transform="translate(473.740000,173.891316)" id="shape92"><path stroke-width="1" d="M.0,.0L-214.2,.0" fill="none" stroke="#191919"/><path stroke-width="1" d="M-214.2,3.0L-220.2,.0L-214.2,-3.0L-214.2,3.0" fill="#191919" stroke="#191919" stroke-linecap="round"/></g><g transform="translate(637.740000,173.349000)" id="shape93"><path stroke-width="1" d="M.0,.0L28.0,.0L214.5,.0" fill="none" stroke="#191919"/><path stroke-width="1" d="M214.5,-3.0L220.5,.0L214.5,3.0L214.5,-3.0" fill="#191919" stroke="#191919" stroke-linecap="round"/></g><g transform="translate(473.740000,280.523969)" id="shape94"><path stroke-width="1" d="M.0,.0L-214.2,.0" fill="none" stroke="#191919"/><path stroke-width="1" d="M-214.2,3.0L-220.2,.0L-214.2,-3.0L-214.2,3.0" fill="#191919" stroke="#191919" stroke-linecap="round"/></g><g transform="matrix(-1.000000,0.000000,0.000000,1.000000,435.655000,160.925000)" id="shape95"><path d="M.0,.0L138.3,.0L138.3,26.0L.0,26.0L.0,.0z" stroke-width="1" fill="#ffffff" fill-rule="nonzero" stroke="#000000"/><text transform="matrix(-1.00,0.00,0.00,1.00,138.3,0.0)" style="fill:#191919;font-family:Arial,PingFang SC,Mircrosoft YaHei,Arial;font-size:10.00pt" xml:space="preserve"><tspan x="13.1" style="font-family:Arial,PingFang SC,Mircrosoft YaHei,Arial" y="18.0">H</tspan><tspan x="22.1" style="font-family:Arial,PingFang SC,Mircrosoft YaHei,Arial;font-size:6.50pt" textLength="4.0" y="20.6">2</tspan><tspan x="26.1" style="font-family:Arial,PingFang SC,Mircrosoft YaHei,Arial" textLength="99.0" y="18.0"> +Electroyte feed</tspan></text></g><g transform="translate(306.520000,267.000000)" id="shape96"><path d="M.0,.0L120.0,.0L120.0,26.0L.0,26.0L.0,.0z" stroke-width="1" fill="#ffffff" fill-rule="nonzero" stroke="#000000"/><text style="fill:#191919;font-family:Arial,PingFang SC,Mircrosoft YaHei,Arial;font-size:10.00pt" xml:space="preserve"><tspan x="16.5" style="font-family:Arial,PingFang SC,Mircrosoft YaHei,Arial" y="18.0">Electroyte feed</tspan></text></g><g transform="translate(676.520000,161.000000)" id="shape97"><path d="M.0,.0L136.0,.0L136.0,26.0L.0,26.0L.0,.0z" stroke-width="1" fill="#ffffff" fill-rule="nonzero" stroke="#000000"/><text style="fill:#191919;font-family:Arial,PingFang SC,Mircrosoft YaHei,Arial;font-size:10.00pt" xml:space="preserve"><tspan x="11.5" style="font-family:Arial,PingFang SC,Mircrosoft YaHei,Arial" y="18.0">O</tspan><tspan x="21.5" style="font-family:Arial,PingFang SC,Mircrosoft YaHei,Arial;font-size:6.50pt" textLength="4.0" y="20.6">2</tspan><tspan x="25.5" style="font-family:Arial,PingFang SC,Mircrosoft YaHei,Arial" textLength="99.0" y="18.0"> +Electroyte feed</tspan></text></g></g></svg>