<svg width="1133" viewBox="0 0 1133 804" xmlns:ev="http://www.w3.org/2001/xml-events" xmlns="http://www.w3.org/2000/svg" height="804" xmlns:xlink="http://www.w3.org/1999/xlink"><defs/><g id="page1" transform="translate(5.5,5.5)"><rect x="0" y="0" width="1123" fill="#ffffff" height="794"/><g id="shape1" transform="translate(222.978450,197.085950)"><path d="M.0,50.4L50.4,40.3L50.4,10.1L.0,.0L.0,50.4z" fill-rule="nonzero" fill="#ffffff"/><path d="M.0,50.4L50.4,40.3L50.4,10.1L.0,.0L.0,50.4zM.0,50.4L.0,50.4z" stroke-width="1" fill="none" stroke="#000000"/></g><g id="shape2" transform="translate(362.797500,203.804000)"><path d="M.0,18.5C-0.0,8.3,8.3,-0.0,18.5,-0.0C28.7,-0.0,37.0,8.3,36.9,18.5C37.0,28.7,28.7,37.0,18.5,37.0C8.3,37.0,-0.0,28.7,.0,18.5z" fill-rule="nonzero" fill="#ffffff"/><path d="M.0,18.0L4.6,18.0L13.9,9.2L24.0,27.7L32.3,18.0L36.9,18.0M.0,18.5C-0.0,8.3,8.3,-0.0,18.5,-0.0C28.7,-0.0,37.0,8.3,36.9,18.5C37.0,28.7,28.7,37.0,18.5,37.0C8.3,37.0,-0.0,28.7,.0,18.5z" stroke-width="1" fill="none" stroke="#000000"/></g><path d="M.0,67.6C4.9,70.6,11.5,72.2,18.5,72.2C25.4,72.2,32.1,70.6,36.9,67.6L36.9,4.6C32.1,1.7,25.4,.0,18.5,.0C11.5,.0,4.9,1.7,.0,4.6L.0,67.6z" fill-rule="nonzero" id="shape3" fill="#ffffff" stroke-width="1" transform="translate(489.179500,186.169200)" stroke="#000000"/><g id="shape4" transform="translate(616.821450,197.085950)"><path d="M.0,50.4L50.4,40.3L50.4,10.1L.0,.0L.0,50.4z" fill-rule="nonzero" fill="#ffffff"/><path d="M.0,50.4L50.4,40.3L50.4,10.1L.0,.0L.0,50.4zM.0,50.4L.0,50.4z" stroke-width="1" fill="none" stroke="#000000"/></g><g id="shape5" transform="translate(756.220500,203.804000)"><path d="M.0,18.5C-0.0,8.3,8.3,-0.0,18.5,-0.0C28.7,-0.0,37.0,8.3,36.9,18.5C37.0,28.7,28.7,37.0,18.5,37.0C8.3,37.0,-0.0,28.7,.0,18.5z" fill-rule="nonzero" fill="#ffffff"/><path d="M.0,18.0L4.6,18.0L13.9,9.2L24.0,27.7L32.3,18.0L36.9,18.0M.0,18.5C-0.0,8.3,8.3,-0.0,18.5,-0.0C28.7,-0.0,37.0,8.3,36.9,18.5C37.0,28.7,28.7,37.0,18.5,37.0C8.3,37.0,-0.0,28.7,.0,18.5z" stroke-width="1" fill="none" stroke="#000000"/></g><path d="M.0,67.6C4.9,70.6,11.5,72.2,18.5,72.2C25.4,72.2,32.1,70.6,36.9,67.6L36.9,4.6C32.1,1.7,25.4,.0,18.5,.0C11.5,.0,4.9,1.7,.0,4.6L.0,67.6z" fill-rule="nonzero" id="shape6" fill="#ffffff" stroke-width="1" transform="translate(882.182500,186.169200)" stroke="#000000"/><g id="shape7" transform="translate(273.363550,222.278500)"><path d="M.0,.0L83.0,.0" stroke-width="1" fill="none" stroke="#191919"/><path stroke-linecap="round" d="M83.0,-3.0L89.0,.0L83.0,3.0L83.0,-3.0" stroke-width="1" fill="#191919" stroke="#191919"/></g><g id="shape8" transform="translate(399.746500,222.278500)"><path d="M.0,.0L83.0,.0" stroke-width="1" fill="none" stroke="#191919"/><path stroke-linecap="round" d="M83.0,-3.0L89.0,.0L83.0,3.0L83.0,-3.0" stroke-width="1" fill="#191919" stroke="#191919"/></g><g id="shape9" transform="translate(507.654000,186.169200)"><path d="M.0,.0L.0,-33.0L53.6,-33.0L53.6,36.1L103.2,36.1" stroke-width="1" fill="none" stroke="#191919"/><path stroke-linecap="round" d="M103.2,33.1L109.2,36.1L103.2,39.1L103.2,33.1" stroke-width="1" fill="#191919" stroke="#191919"/></g><g id="shape10" transform="translate(667.206550,222.278500)"><path d="M.0,.0L83.0,.0" stroke-width="1" fill="none" stroke="#191919"/><path stroke-linecap="round" d="M83.0,-3.0L89.0,.0L83.0,3.0L83.0,-3.0" stroke-width="1" fill="#191919" stroke="#191919"/></g><g id="shape11" transform="translate(793.169500,222.278500)"><path d="M.0,.0L82.0,.0" stroke-width="1" fill="none" stroke="#191919"/><path stroke-linecap="round" d="M82.0,-3.0L88.0,.0L82.0,3.0L82.0,-3.0" stroke-width="1" fill="#191919" stroke="#191919"/></g><g id="shape12" transform="matrix(-1.000000,0.000000,0.000000,1.000000,919.132550,361.676950)"><path d="M.0,50.4L50.4,40.3L50.4,10.1L.0,.0L.0,50.4z" fill-rule="nonzero" fill="#ffffff"/><path d="M.0,50.4L50.4,40.3L50.4,10.1L.0,.0L.0,50.4zM.0,50.4L.0,50.4z" stroke-width="1" fill="none" stroke="#000000"/></g><g id="shape13" transform="translate(742.784500,368.395000)"><path d="M.0,18.5C-0.0,8.3,8.3,-0.0,18.5,-0.0C28.7,-0.0,37.0,8.3,36.9,18.5C37.0,28.7,28.7,37.0,18.5,37.0C8.3,37.0,-0.0,28.7,.0,18.5z" fill-rule="nonzero" fill="#ffffff"/><path d="M.0,18.0L4.6,18.0L13.9,9.2L24.0,27.7L32.3,18.0L36.9,18.0M.0,18.5C-0.0,8.3,8.3,-0.0,18.5,-0.0C28.7,-0.0,37.0,8.3,36.9,18.5C37.0,28.7,28.7,37.0,18.5,37.0C8.3,37.0,-0.0,28.7,.0,18.5z" stroke-width="1" fill="none" stroke="#000000"/></g><path d="M.0,67.6C4.9,70.6,11.5,72.2,18.5,72.2C25.4,72.2,32.1,70.6,36.9,67.6L36.9,4.6C32.1,1.7,25.4,.0,18.5,.0C11.5,.0,4.9,1.7,.0,4.6L.0,67.6z" fill-rule="nonzero" id="shape14" fill="#ffffff" stroke-width="1" transform="translate(616.822500,350.760200)" stroke="#000000"/><g id="shape15" transform="matrix(-1.000000,0.000000,0.000000,1.000000,526.548550,364.195950)"><path d="M.0,50.4L50.4,40.3L50.4,10.1L.0,.0L.0,50.4z" fill-rule="nonzero" fill="#ffffff"/><path d="M.0,50.4L50.4,40.3L50.4,10.1L.0,.0L.0,50.4zM.0,50.4L.0,50.4z" stroke-width="1" fill="none" stroke="#000000"/></g><g id="shape16" transform="translate(350.200500,370.914000)"><path d="M.0,18.5C-0.0,8.3,8.3,-0.0,18.5,-0.0C28.7,-0.0,37.0,8.3,36.9,18.5C37.0,28.7,28.7,37.0,18.5,37.0C8.3,37.0,-0.0,28.7,.0,18.5z" fill-rule="nonzero" fill="#ffffff"/><path d="M.0,18.0L4.6,18.0L13.9,9.2L24.0,27.7L32.3,18.0L36.9,18.0M.0,18.5C-0.0,8.3,8.3,-0.0,18.5,-0.0C28.7,-0.0,37.0,8.3,36.9,18.5C37.0,28.7,28.7,37.0,18.5,37.0C8.3,37.0,-0.0,28.7,.0,18.5z" stroke-width="1" fill="none" stroke="#000000"/></g><path d="M.0,67.6C4.9,70.6,11.5,72.2,18.5,72.2C25.4,72.2,32.1,70.6,36.9,67.6L36.9,4.6C32.1,1.7,25.4,.0,18.5,.0C11.5,.0,4.9,1.7,.0,4.6L.0,67.6z" fill-rule="nonzero" id="shape17" fill="#ffffff" stroke-width="1" transform="translate(224.238500,353.279200)" stroke="#000000"/><g id="shape18" transform="translate(900.657000,186.169200)"><path d="M.0,.0L.0,-33.0L113.6,-33.0L113.6,200.7L24.5,200.7" stroke-width="1" fill="none" stroke="#191919"/><path stroke-linecap="round" d="M24.5,203.7L18.5,200.7L24.5,197.7L24.5,203.7" stroke-width="1" fill="#191919" stroke="#191919"/></g><g id="shape19" transform="translate(868.747450,386.869500)"><path d="M.0,.0L-82.0,.0" stroke-width="1" fill="none" stroke="#191919"/><path stroke-linecap="round" d="M-82.0,3.0L-88.0,.0L-82.0,-3.0L-82.0,3.0" stroke-width="1" fill="#191919" stroke="#191919"/></g><g id="shape20" transform="translate(900.657000,258.387800)"><path d="M.0,.0L.0,24.6L-129.4,24.6" stroke-width="1" fill="none" stroke="#191919"/><path stroke-linecap="round" d="M-129.4,27.6L-135.4,24.6L-129.4,21.6L-129.4,27.6" stroke-width="1" fill="#191919" stroke="#191919"/></g><g id="shape21" transform="translate(507.654000,258.387800)"><path d="M.0,.0L.0,24.6L-129.4,24.6" stroke-width="1" fill="none" stroke="#191919"/><path stroke-linecap="round" d="M-129.4,27.6L-135.4,24.6L-129.4,21.6L-129.4,27.6" stroke-width="1" fill="#191919" stroke="#191919"/></g><g id="shape22" transform="translate(742.784500,386.869500)"><path d="M.0,.0L-82.0,.0" stroke-width="1" fill="none" stroke="#191919"/><path stroke-linecap="round" d="M-82.0,3.0L-88.0,.0L-82.0,-3.0L-82.0,3.0" stroke-width="1" fill="#191919" stroke="#191919"/></g><g id="shape23" transform="translate(635.297000,350.760200)"><path d="M.0,.0L.0,-40.0L-59.0,-40.0L-59.0,38.6L-102.7,38.6" stroke-width="1" fill="none" stroke="#191919"/><path stroke-linecap="round" d="M-102.7,41.6L-108.7,38.6L-102.7,35.6L-102.7,41.6" stroke-width="1" fill="#191919" stroke="#191919"/></g><g id="shape24" transform="translate(635.297000,422.978800)"><path d="M.0,.0L.0,26.1L-129.0,26.1" stroke-width="1" fill="none" stroke="#191919"/><path stroke-linecap="round" d="M-129.0,29.1L-135.0,26.1L-129.0,23.1L-129.0,29.1" stroke-width="1" fill="#191919" stroke="#191919"/></g><g id="shape25" transform="translate(476.163450,389.388500)"><path d="M.0,.0L-82.0,.0" stroke-width="1" fill="none" stroke="#191919"/><path stroke-linecap="round" d="M-82.0,3.0L-88.0,.0L-82.0,-3.0L-82.0,3.0" stroke-width="1" fill="#191919" stroke="#191919"/></g><g id="shape26" transform="translate(350.200500,389.388500)"><path d="M.0,.0L-82.0,.0" stroke-width="1" fill="none" stroke="#191919"/><path stroke-linecap="round" d="M-82.0,3.0L-88.0,.0L-82.0,-3.0L-82.0,3.0" stroke-width="1" fill="#191919" stroke="#191919"/></g><g id="shape27" transform="translate(242.713000,425.497800)"><path d="M.0,.0L.0,23.5L-129.5,23.5" stroke-width="1" fill="none" stroke="#191919"/><path stroke-linecap="round" d="M-129.5,26.5L-135.5,23.5L-129.5,20.5L-129.5,26.5" stroke-width="1" fill="#191919" stroke="#191919"/></g><g id="shape28" transform="translate(224.658450,539.703950)"><path d="M.0,50.4L50.4,40.3L50.4,10.1L.0,.0L.0,50.4z" fill-rule="nonzero" fill="#ffffff"/><path d="M.0,50.4L50.4,40.3L50.4,10.1L.0,.0L.0,50.4zM.0,50.4L.0,50.4z" stroke-width="1" fill="none" stroke="#000000"/></g><g id="shape29" transform="translate(364.476500,546.422000)"><path d="M.0,18.5C-0.0,8.3,8.3,-0.0,18.5,-0.0C28.7,-0.0,37.0,8.3,36.9,18.5C37.0,28.7,28.7,37.0,18.5,37.0C8.3,37.0,-0.0,28.7,.0,18.5z" fill-rule="nonzero" fill="#ffffff"/><path d="M.0,18.0L4.6,18.0L13.9,9.2L24.0,27.7L32.3,18.0L36.9,18.0M.0,18.5C-0.0,8.3,8.3,-0.0,18.5,-0.0C28.7,-0.0,37.0,8.3,36.9,18.5C37.0,28.7,28.7,37.0,18.5,37.0C8.3,37.0,-0.0,28.7,.0,18.5z" stroke-width="1" fill="none" stroke="#000000"/></g><path d="M.0,67.6C4.9,70.6,11.5,72.2,18.5,72.2C25.4,72.2,32.1,70.6,36.9,67.6L36.9,4.6C32.1,1.7,25.4,.0,18.5,.0C11.5,.0,4.9,1.7,.0,4.6L.0,67.6z" fill-rule="nonzero" id="shape30" fill="#ffffff" stroke-width="1" transform="translate(490.858500,528.787200)" stroke="#000000"/><g id="shape31" transform="translate(618.501450,539.703950)"><path d="M.0,50.4L50.4,40.3L50.4,10.1L.0,.0L.0,50.4z" fill-rule="nonzero" fill="#ffffff"/><path d="M.0,50.4L50.4,40.3L50.4,10.1L.0,.0L.0,50.4zM.0,50.4L.0,50.4z" stroke-width="1" fill="none" stroke="#000000"/></g><g id="shape32" transform="translate(757.900500,546.422000)"><path d="M.0,18.5C-0.0,8.3,8.3,-0.0,18.5,-0.0C28.7,-0.0,37.0,8.3,36.9,18.5C37.0,28.7,28.7,37.0,18.5,37.0C8.3,37.0,-0.0,28.7,.0,18.5z" fill-rule="nonzero" fill="#ffffff"/><path d="M.0,18.0L4.6,18.0L13.9,9.2L24.0,27.7L32.3,18.0L36.9,18.0M.0,18.5C-0.0,8.3,8.3,-0.0,18.5,-0.0C28.7,-0.0,37.0,8.3,36.9,18.5C37.0,28.7,28.7,37.0,18.5,37.0C8.3,37.0,-0.0,28.7,.0,18.5z" stroke-width="1" fill="none" stroke="#000000"/></g><path d="M.0,67.6C4.9,70.6,11.5,72.2,18.5,72.2C25.4,72.2,32.1,70.6,36.9,67.6L36.9,4.6C32.1,1.7,25.4,.0,18.5,.0C11.5,.0,4.9,1.7,.0,4.6L.0,67.6z" fill-rule="nonzero" id="shape33" fill="#ffffff" stroke-width="1" transform="translate(883.862500,528.787200)" stroke="#000000"/><g id="shape34" transform="translate(275.043550,564.896500)"><path d="M.0,.0L83.4,.0" stroke-width="1" fill="none" stroke="#191919"/><path stroke-linecap="round" d="M83.4,-3.0L89.4,.0L83.4,3.0L83.4,-3.0" stroke-width="1" fill="#191919" stroke="#191919"/></g><g id="shape35" transform="translate(401.425500,564.896500)"><path d="M.0,.0L83.4,-0.0" stroke-width="1" fill="none" stroke="#191919"/><path stroke-linecap="round" d="M83.4,-3.0L89.4,-0.0L83.4,3.0L83.4,-3.0" stroke-width="1" fill="#191919" stroke="#191919"/></g><g id="shape36" transform="translate(509.333000,528.787200)"><path d="M.0,.0L.0,-38.0L58.9,-38.0L58.9,36.1L103.2,36.1" stroke-width="1" fill="none" stroke="#191919"/><path stroke-linecap="round" d="M103.2,33.1L109.2,36.1L103.2,39.1L103.2,33.1" stroke-width="1" fill="#191919" stroke="#191919"/></g><g id="shape37" transform="translate(668.886550,564.896500)"><path d="M.0,.0L83.0,.0" stroke-width="1" fill="none" stroke="#191919"/><path stroke-linecap="round" d="M83.0,-3.0L89.0,.0L83.0,3.0L83.0,-3.0" stroke-width="1" fill="#191919" stroke="#191919"/></g><g id="shape38" transform="translate(794.849500,564.896500)"><path d="M.0,.0L83.0,-0.0" stroke-width="1" fill="none" stroke="#191919"/><path stroke-linecap="round" d="M83.0,-3.0L89.0,-0.0L83.0,3.0L83.0,-3.0" stroke-width="1" fill="#191919" stroke="#191919"/></g><g id="shape39" transform="translate(902.337000,601.005800)"><path d="M.0,.0L-1.1,.0L-1.1,22.0L128.9,22.0" stroke-width="1" fill="none" stroke="#191919"/><path stroke-linecap="round" d="M128.9,19.0L134.9,22.0L128.9,25.0L128.9,19.0" stroke-width="1" fill="#191919" stroke="#191919"/></g><g id="shape40" transform="translate(509.333000,601.005800)"><path d="M.0,.0L-1.1,.0L-1.1,22.0L128.9,22.0" stroke-width="1" fill="none" stroke="#191919"/><path stroke-linecap="round" d="M128.9,19.0L134.9,22.0L128.9,25.0L128.9,19.0" stroke-width="1" fill="#191919" stroke="#191919"/></g><g id="shape41" transform="translate(242.713000,353.279200)"><path d="M.0,.0L.0,-43.0L-172.5,-43.0L-172.5,211.6L-24.1,211.6" stroke-width="1" fill="none" stroke="#191919"/><path stroke-linecap="round" d="M-24.1,208.6L-18.1,211.6L-24.1,214.6L-24.1,208.6" stroke-width="1" fill="#191919" stroke="#191919"/></g><g id="shape42" transform="translate(222.978450,222.278500)"><path d="M-8.0,.0L-152.7,.0" stroke-width="1" fill="none" stroke="#191919"/><path stroke-linecap="round" d="M-8.0,-4.0L.0,.0L-8.0,4.0L-8.0,-4.0" stroke-width="1" fill="#191919" stroke="#191919"/></g><g id="shape43" transform="translate(107.259900,203.803500)"><path d="M.0,.0L62.7,.0L62.7,35.0L.0,35.0L.0,.0z" fill-rule="nonzero" fill="#ffffff" stroke-width="1" stroke="#000000"/><text style="fill:#191919;font-family:Arial;font-size:10.00pt" xml:space="preserve"><tspan x="19.9" y="22.5">CO</tspan><tspan style="font-size:6.50pt" y="25.1" x="38.9" textLength="4.0">2</tspan></text></g><g id="shape44" transform="translate(188.171000,156.532500)"><text style="fill:#191919;font-family:Arial;font-size:12.00pt;font-weight:bold" xml:space="preserve"><tspan x="6.0" y="23.5">Compressor 1</tspan></text></g><g id="shape45" transform="translate(321.272000,156.532500)"><text style="fill:#191919;font-family:Arial;font-size:12.00pt;font-weight:bold" xml:space="preserve"><tspan x="28.0" y="34.0">Cooler 1</tspan></text></g><g id="shape46" transform="translate(498.520000,235.032500)"><text style="fill:#191919;font-family:Arial;font-size:12.00pt;font-weight:bold" xml:space="preserve"><tspan x="32.5" y="34.0">Flash 1</tspan></text></g><g id="shape47" transform="translate(413.259800,265.500000)"><path d="M.0,.0L62.7,.0L62.7,35.0L.0,35.0L.0,.0z" fill-rule="nonzero" fill="#ffffff" stroke-width="1" stroke="#000000"/><text style="fill:#191919;font-family:Arial;font-size:10.00pt" xml:space="preserve"><tspan x="8.9" y="22.5">Liquid 1</tspan></text></g><g id="shape48" transform="translate(811.629900,265.500000)"><path d="M.0,.0L62.7,.0L62.7,35.0L.0,35.0L.0,.0z" fill-rule="nonzero" fill="#ffffff" stroke-width="1" stroke="#000000"/><text style="fill:#191919;font-family:Arial;font-size:10.00pt" xml:space="preserve"><tspan x="8.9" y="22.5">Liquid 2</tspan></text></g><g id="shape49" transform="translate(582.014000,156.532500)"><text style="fill:#191919;font-family:Arial;font-size:12.00pt;font-weight:bold" xml:space="preserve"><tspan x="6.0" y="23.5">Compressor 2</tspan></text></g><g id="shape50" transform="translate(714.695000,157.032500)"><text style="fill:#191919;font-family:Arial;font-size:12.00pt;font-weight:bold" xml:space="preserve"><tspan x="28.0" y="34.0">Cooler 2</tspan></text></g><g id="shape51" transform="translate(894.260000,235.032500)"><text style="fill:#191919;font-family:Arial;font-size:12.00pt;font-weight:bold" xml:space="preserve"><tspan x="32.5" y="34.0">Flash 2</tspan></text></g><g id="shape52" transform="translate(833.940000,320.032500)"><text style="fill:#191919;font-family:Arial;font-size:12.00pt;font-weight:bold" xml:space="preserve"><tspan x="6.0" y="23.5">Compressor 3</tspan></text></g><g id="shape53" transform="translate(701.259000,323.032500)"><text style="fill:#191919;font-family:Arial;font-size:12.00pt;font-weight:bold" xml:space="preserve"><tspan x="28.0" y="34.0">Cooler 3</tspan></text></g><g id="shape54" transform="translate(626.260000,401.032500)"><text style="fill:#191919;font-family:Arial;font-size:12.00pt;font-weight:bold" xml:space="preserve"><tspan x="32.5" y="34.0">Flash 3</tspan></text></g><g id="shape55" transform="translate(546.629900,431.000000)"><path d="M.0,.0L62.7,.0L62.7,35.0L.0,35.0L.0,.0z" fill-rule="nonzero" fill="#ffffff" stroke-width="1" stroke="#000000"/><text style="fill:#191919;font-family:Arial;font-size:10.00pt" xml:space="preserve"><tspan x="8.9" y="22.5">Liquid 3</tspan></text></g><g id="shape56" transform="translate(441.356000,320.032500)"><text style="fill:#191919;font-family:Arial;font-size:12.00pt;font-weight:bold" xml:space="preserve"><tspan x="6.0" y="23.5">Compressor 4</tspan></text></g><g id="shape57" transform="translate(308.675000,324.032500)"><text style="fill:#191919;font-family:Arial;font-size:12.00pt;font-weight:bold" xml:space="preserve"><tspan x="28.0" y="34.0">Cooler 4</tspan></text></g><g id="shape58" transform="translate(151.000000,431.000000)"><path d="M.0,.0L62.7,.0L62.7,35.0L.0,35.0L.0,.0z" fill-rule="nonzero" fill="#ffffff" stroke-width="1" stroke="#000000"/><text style="fill:#191919;font-family:Arial;font-size:10.00pt" xml:space="preserve"><tspan x="8.9" y="22.5">Liquid 4</tspan></text></g><g id="shape59" transform="translate(236.260000,401.032500)"><text style="fill:#191919;font-family:Arial;font-size:12.00pt;font-weight:bold" xml:space="preserve"><tspan x="32.5" y="34.0">Flash 4</tspan></text></g><g id="shape60" transform="translate(182.713000,499.032500)"><text style="fill:#191919;font-family:Arial;font-size:12.00pt;font-weight:bold" xml:space="preserve"><tspan x="6.0" y="23.5">Compressor 5</tspan></text></g><g id="shape61" transform="translate(322.951000,499.032500)"><text style="fill:#191919;font-family:Arial;font-size:12.00pt;font-weight:bold" xml:space="preserve"><tspan x="28.0" y="34.0">Cooler 5</tspan></text></g><g id="shape62" transform="translate(543.519900,605.532500)"><path d="M.0,.0L62.7,.0L62.7,35.0L.0,35.0L.0,.0z" fill-rule="nonzero" fill="#ffffff" stroke-width="1" stroke="#000000"/><text style="fill:#191919;font-family:Arial;font-size:10.00pt" xml:space="preserve"><tspan x="8.9" y="22.5">Liquid 5</tspan></text></g><g id="shape63" transform="translate(396.260000,584.532500)"><text style="fill:#191919;font-family:Arial;font-size:12.00pt;font-weight:bold" xml:space="preserve"><tspan x="32.5" y="34.0">Flash 5</tspan></text></g><g id="shape64" transform="translate(583.694050,499.032500)"><text style="fill:#191919;font-family:Arial;font-size:12.00pt;font-weight:bold" xml:space="preserve"><tspan x="6.0" y="23.5">Compressor 6</tspan></text></g><g id="shape65" transform="translate(716.375000,499.032500)"><text style="fill:#191919;font-family:Arial;font-size:12.00pt;font-weight:bold" xml:space="preserve"><tspan x="28.0" y="34.0">Cooler 6</tspan></text></g><g id="shape66" transform="translate(902.337000,528.787200)"><path d="M.0,.0L.0,-37.8L143.9,-37.8" stroke-width="1" fill="none" stroke="#191919"/><path stroke-linecap="round" d="M143.9,-40.8L149.9,-37.8L143.9,-34.8L143.9,-40.8" stroke-width="1" fill="#191919" stroke="#191919"/></g><g id="shape67" transform="translate(939.260000,605.532500)"><path d="M.0,.0L62.7,.0L62.7,35.0L.0,35.0L.0,.0z" fill-rule="nonzero" fill="#ffffff" stroke-width="1" stroke="#000000"/><text style="fill:#191919;font-family:Arial;font-size:10.00pt" xml:space="preserve"><tspan x="8.9" y="22.5">Liquid 6</tspan></text></g><g id="shape68" transform="translate(789.260000,584.532500)"><text style="fill:#191919;font-family:Arial;font-size:12.00pt;font-weight:bold" xml:space="preserve"><tspan x="32.5" y="34.0">Flash 6</tspan></text></g><g id="shape69" transform="translate(924.260000,468.532500)"><path d="M.0,.0L106.0,.0L106.0,48.0L.0,48.0L.0,.0z" fill-rule="nonzero" fill="#ffffff" stroke-width="1" stroke="#000000"/><text style="fill:#191919;font-family:Arial;font-size:10.00pt" xml:space="preserve"><tspan x="16.5" y="21.0">Compressed </tspan><tspan x="41.5" y="37.0">CO</tspan><tspan style="font-size:6.50pt" y="39.6" x="60.5" textLength="4.0">2</tspan></text></g></g></svg>