<svg xmlns:ev="http://www.w3.org/2001/xml-events" xmlns="http://www.w3.org/2000/svg" height="804" viewBox="0 0 1133 804" xmlns:xlink="http://www.w3.org/1999/xlink" width="1133"><defs/><g id="page1" transform="translate(5.5,5.5)"><rect height="794" x="0" y="0" fill="#ffffff" width="1123"/><g id="shape1" transform="matrix(0.000000,-1.000000,1.000000,0.000000,296.759843,452.850394)"><path fill-rule="nonzero" d="M.0,501.0C4.9,517.2,28.5,529.0,56.0,529.0C83.5,529.0,107.1,517.2,112.0,501.0L112.0,28.0C107.1,11.8,83.5,.0,56.0,.0C28.5,.0,4.9,11.8,.0,28.0L.0,501.0z" fill="#ffffff"/><path d="M.0,501.0C4.9,517.2,28.5,529.0,56.0,529.0C83.5,529.0,107.1,517.2,112.0,501.0L112.0,28.0C107.1,11.8,83.5,.0,56.0,.0C28.5,.0,4.9,11.8,.0,28.0L.0,501.0zM.0,501.0L112.0,501.0M.0,28.0L112.0,28.0" stroke="#000000" stroke-width="1" fill="none"/></g><g id="shape2" transform="translate(303.000000,362.000000)"><path d="M-8.0,.0L-227.0,.0" stroke="#191919" stroke-width="1" fill="none"/><path d="M-8.0,-4.0L.0,.0L-8.0,4.0L-8.0,-4.0" stroke-width="1" stroke="#191919" stroke-linecap="round" fill="#191919"/></g><g id="shape3" transform="translate(303.000000,430.000000)"><path d="M-8.0,.0L-227.0,.0" stroke="#191919" stroke-width="1" fill="none"/><path d="M-8.0,-4.0L.0,.0L-8.0,4.0L-8.0,-4.0" stroke-width="1" stroke="#191919" stroke-linecap="round" fill="#191919"/></g><g id="shape4" transform="translate(825.759843,396.850394)"><path d="M.0,.0L39.0,.0" stroke="#191919" stroke-width="1" fill="none"/><path d="M39.0,-3.0L45.0,.0L39.0,3.0L39.0,-3.0" stroke-width="1" stroke="#191919" stroke-linecap="round" fill="#191919"/></g><g id="shape5" transform="translate(869.000000,265.000000)"><path d="M.0,.0L183.0,.0" stroke="#191919" stroke-width="1" fill="none"/><path d="M183.0,-3.0L189.0,.0L183.0,3.0L183.0,-3.0" stroke-width="1" stroke="#191919" stroke-linecap="round" fill="#191919"/></g><g id="shape6" transform="translate(869.000000,529.000000)"><path d="M.0,.0L183.0,.0" stroke="#191919" stroke-width="1" fill="none"/><path d="M183.0,-3.0L189.0,.0L183.0,3.0L183.0,-3.0" stroke-width="1" stroke="#191919" stroke-linecap="round" fill="#191919"/></g><path id="shape7" transform="translate(870.000000,396.000000)" d="M.0,.0L-1.0,-131.0" stroke="#191919" stroke-width="1" fill="none"/><path id="shape8" transform="translate(870.000000,396.000000)" d="M.0,.0L.0,133.0" stroke="#191919" stroke-width="1" fill="none"/><g id="shape9" transform="translate(128.491000,413.000000)"><path fill-rule="nonzero" d="M.0,.0L113.5,.0L113.5,35.0L.0,35.0L.0,.0z" stroke="#000000" stroke-width="1" fill="#ffffff"/><text xml:space="preserve" style="fill:#191919;font-family:Arial;font-size:10.00pt"><tspan x="50.3" y="23.0">N</tspan><tspan textLength="4.0" y="25.6" x="59.3" style="font-size:6.50pt">2</tspan></text></g><g id="shape10" transform="translate(128.491000,344.000000)"><path fill-rule="nonzero" d="M.0,.0L113.5,.0L113.5,35.0L.0,35.0L.0,.0z" stroke="#000000" stroke-width="1" fill="#ffffff"/><text xml:space="preserve" style="fill:#191919;font-family:Arial;font-size:10.00pt"><tspan x="50.3" y="23.0">H</tspan><tspan textLength="4.0" y="25.6" x="59.3" style="font-size:6.50pt">2</tspan></text></g><g id="shape11" transform="translate(907.000000,247.500000)"><path fill-rule="nonzero" d="M.0,.0L113.5,.0L113.5,35.0L.0,35.0L.0,.0z" stroke="#000000" stroke-width="1" fill="#ffffff"/><text xml:space="preserve" style="fill:#191919;font-family:Arial;font-size:10.00pt"><tspan x="21.3" y="23.0">NH</tspan><tspan textLength="4.0" y="25.6" x="39.3" style="font-size:6.50pt">3</tspan><tspan textLength="49.0" y="23.0" x="43.3"> for PCC</tspan></text></g><g id="shape12" transform="translate(907.000000,505.000000)"><path fill-rule="nonzero" d="M.0,.0L113.5,.0L113.5,48.0L.0,48.0L.0,.0z" stroke="#000000" stroke-width="1" fill="#ffffff"/><text xml:space="preserve" style="fill:#191919;font-family:Arial;font-size:10.00pt"><tspan x="22.3" y="21.0">NH</tspan><tspan textLength="4.0" y="23.6" x="40.3" style="font-size:6.50pt">3</tspan><tspan textLength="51.0" y="21.0" x="44.3"> for urea </tspan><tspan x="36.8" y="37.0">reactor</tspan></text></g><g id="shape13" transform="translate(473.007411,368.850394)"><text xml:space="preserve" style="fill:#191919;font-family:Arial;font-size:12.00pt;font-weight:bold"><tspan x="25.8" y="34.0">PFR NH</tspan><tspan textLength="6.0" y="37.3" x="86.8" style="font-size:7.80pt">3</tspan><tspan textLength="58.0" y="34.0" x="92.8"> reactor</tspan></text></g></g></svg>