<svg width="1133" viewBox="0 0 1133 804" xmlns:xlink="http://www.w3.org/1999/xlink" height="804" xmlns:ev="http://www.w3.org/2001/xml-events" xmlns="http://www.w3.org/2000/svg"><defs/><g transform="translate(5.5,5.5)" id="page1"><rect width="1123" y="0" height="794" fill="#ffffff" x="0"/><g transform="translate(485.594550,181.358678)" id="shape1"><path d="M.0,266.0C2.7,274.9,15.7,281.4,30.9,281.4C46.0,281.4,59.0,274.9,61.7,266.0L61.7,15.4C59.0,6.5,46.0,-0.0,30.9,-0.0C15.7,-0.0,2.7,6.5,.0,15.4L.0,266.0z" fill-rule="nonzero" fill="#ffffff"/><path d="M.0,266.0C2.7,274.9,15.7,281.4,30.9,281.4C46.0,281.4,59.0,274.9,61.7,266.0L61.7,15.4C59.0,6.5,46.0,-0.0,30.9,-0.0C15.7,-0.0,2.7,6.5,.0,15.4L.0,266.0zM.0,266.0L61.7,266.0M.0,15.4L61.7,15.4" fill="none" stroke-width="1" stroke="#000000"/></g><path transform="translate(240.517543,111.400825)" d="M.0,74.7C5.3,78.0,12.6,79.8,20.2,79.8C27.8,79.8,35.1,78.0,40.4,74.7L40.4,5.1C35.1,1.8,27.8,.0,20.2,.0C12.6,.0,5.3,1.8,.0,5.1L.0,74.7z" fill-rule="nonzero" id="shape2" fill="#ffffff" stroke-width="1" stroke="#000000"/><path transform="translate(214.824555,341.357343)" d="M.0,19.7C-0.0,30.5,8.8,39.3,19.7,39.3C30.5,39.3,39.3,30.5,39.3,19.7C39.3,8.8,30.5,-0.0,19.7,-0.0C8.8,-0.0,-0.0,8.8,.0,19.7zM7.9,35.4L.0,43.2L39.3,43.2L31.4,35.4C23.8,40.6,15.5,40.6,7.9,35.4z" fill-rule="nonzero" id="shape3" fill="#ffffff" stroke-width="1" stroke="#000000"/><path transform="translate(214.824555,462.926210)" d="M.0,19.7C-0.0,30.5,8.8,39.3,19.7,39.3C30.5,39.3,39.3,30.5,39.3,19.7C39.3,8.8,30.5,-0.0,19.7,-0.0C8.8,-0.0,-0.0,8.8,.0,19.7zM7.9,35.4L.0,43.2L39.3,43.2L31.4,35.4C23.8,40.6,15.5,40.6,7.9,35.4z" fill-rule="nonzero" id="shape4" fill="#ffffff" stroke-width="1" stroke="#000000"/><g transform="translate(214.824555,482.576919)" id="shape5"><path d="M-8.0,.0L-153.1,.0" fill="none" stroke-width="1" stroke="#191919"/><path d="M-8.0,-4.0L.0,.0L-8.0,4.0L-8.0,-4.0" fill="#191919" stroke-width="1" stroke-linecap="round" stroke="#191919"/></g><g transform="translate(254.125973,482.576919)" id="shape6"><path d="M.0,.0L78.0,.0L78.0,-55.0L225.5,-55.0" fill="none" stroke-width="1" stroke="#191919"/><path d="M225.5,-58.0L231.5,-55.0L225.5,-52.0L225.5,-58.0" fill="#191919" stroke-width="1" stroke-linecap="round" stroke="#191919"/></g><g transform="translate(254.125973,361.008051)" id="shape7"><path d="M.0,.0L78.0,.0L78.0,66.6L225.5,66.6" fill="none" stroke-width="1" stroke="#191919"/><path d="M225.5,63.6L231.5,66.6L225.5,69.6L225.5,63.6" fill="#191919" stroke-width="1" stroke-linecap="round" stroke="#191919"/></g><g transform="translate(260.733500,191.200657)" id="shape8"><path d="M.0,.0L.0,31.5L-162.0,31.5L-162.0,169.8L-51.9,169.8" fill="none" stroke-width="1" stroke="#191919"/><path d="M-51.9,166.8L-45.9,169.8L-51.9,172.8L-51.9,166.8" fill="#191919" stroke-width="1" stroke-linecap="round" stroke="#191919"/></g><g transform="translate(516.450485,181.358678)" id="shape9"><path d="M.0,.0L.0,-30.1L-229.5,-30.1" fill="none" stroke-width="1" stroke="#191919"/><path d="M-229.5,-27.1L-235.5,-30.1L-229.5,-33.1L-229.5,-27.1" fill="#191919" stroke-width="1" stroke-linecap="round" stroke="#191919"/></g><g transform="translate(98.691758,463.956958)" id="shape10"><path d="M.0,.0L80.9,.0L80.9,37.2L.0,37.2L.0,.0z" fill-rule="nonzero" fill="#ffffff" stroke-width="1" stroke="#000000"/><text xml:space="preserve" style="fill:#191919;font-family:Arial;font-size:10.00pt"><tspan y="23.6" x="29.4">NH</tspan><tspan y="26.2" textLength="4.0" style="font-size:6.50pt" x="47.4">3</tspan></text></g><g transform="translate(269.907994,464.987706)" id="shape11"><path d="M.0,.0L112.8,.0L112.8,37.2L.0,37.2L.0,.0z" fill-rule="nonzero" fill="#ffffff" stroke-width="1" stroke="#000000"/><text xml:space="preserve" style="fill:#191919;font-family:Arial;font-size:10.00pt"><tspan y="15.6" x="16.4">High pressure </tspan><tspan y="31.6" x="45.4">NH</tspan><tspan y="34.2" textLength="4.0" style="font-size:6.50pt" x="63.4">3</tspan></text></g><g transform="translate(269.907994,337.918838)" id="shape12"><path d="M.0,.0L112.8,.0L112.8,48.2L.0,48.2L.0,.0z" fill-rule="nonzero" fill="#ffffff" stroke-width="1" stroke="#000000"/><text xml:space="preserve" style="fill:#191919;font-family:Arial;font-size:10.00pt"><tspan y="21.1" x="16.4">High pressure </tspan><tspan y="37.1" x="35.4">recycle</tspan></text></g><g transform="translate(59.827927,276.165188)" id="shape13"><path d="M.0,.0L80.9,.0L80.9,37.2L.0,37.2L.0,.0z" fill-rule="nonzero" fill="#ffffff" stroke-width="1" stroke="#000000"/><text xml:space="preserve" style="fill:#191919;font-family:Arial;font-size:10.00pt"><tspan y="23.6" x="16.9">Recycle</tspan></text></g><g transform="translate(329.826855,132.680780)" id="shape14"><path d="M.0,.0L128.7,.0L128.7,37.2L.0,37.2L.0,.0z" fill-rule="nonzero" fill="#ffffff" stroke-width="1" stroke="#000000"/><text xml:space="preserve" style="fill:#191919;font-family:Arial;font-size:10.00pt"><tspan y="15.6" x="15.4">Unreacted NH</tspan><tspan y="18.2" textLength="4.0" style="font-size:6.50pt" x="96.4">3</tspan><tspan y="15.6" textLength="17.0" x="100.4"> &amp; </tspan><tspan y="31.6" x="45.9">vapors</tspan></text></g><g transform="translate(850.881843,290.518199)" id="shape15"><path d="M.0,157.4C2.6,166.0,15.2,172.3,29.8,172.3C44.5,172.3,57.0,166.0,59.6,157.4L59.6,14.9C57.0,6.3,44.5,-0.0,29.8,-0.0C15.2,-0.0,2.6,6.3,.0,14.9L.0,157.4z" fill-rule="nonzero" fill="#ffffff"/><path d="M.0,157.4C2.6,166.0,15.2,172.3,29.8,172.3C44.5,172.3,57.0,166.0,59.6,157.4L59.6,14.9C57.0,6.3,44.5,-0.0,29.8,-0.0C15.2,-0.0,2.6,6.3,.0,14.9L.0,157.4zM.0,157.4L59.6,157.4M.0,14.9L59.6,14.9" fill="none" stroke-width="1" stroke="#000000"/></g><g transform="translate(547.306421,427.607662)" id="shape16"><path d="M.0,.0L137.4,.0L137.4,-51.0L297.6,-51.0" fill="none" stroke-width="1" stroke="#191919"/><path d="M297.6,-54.0L303.6,-51.0L297.6,-48.0L297.6,-54.0" fill="#191919" stroke-width="1" stroke-linecap="round" stroke="#191919"/></g><g transform="translate(639.450207,357.001435)" id="shape17"><path d="M.0,.0L112.8,.0L112.8,39.3L.0,39.3L.0,.0z" fill-rule="nonzero" fill="#ffffff" stroke-width="1" stroke="#000000"/><text xml:space="preserve" style="fill:#191919;font-family:Arial;font-size:10.00pt"><tspan y="16.7" x="15.4">Diluted urea &amp; </tspan><tspan y="32.7" x="25.9">carbamate</tspan></text></g><g transform="translate(880.690825,290.518199)" id="shape18"><path d="M.0,.0L.0,-74.0L-327.4,-74.0" fill="none" stroke-width="1" stroke="#191919"/><path d="M-327.4,-71.0L-333.4,-74.0L-327.4,-77.0L-327.4,-71.0" fill="#191919" stroke-width="1" stroke-linecap="round" stroke="#191919"/></g><g transform="translate(720.738208,216.537104)" id="shape19"><path d="M.0,-8.0L.0,-140.4L115.0,-140.4" fill="none" stroke-width="1" stroke="#191919"/><path d="M4.0,-8.0L.0,.0L-4.0,-8.0L4.0,-8.0" fill="#191919" stroke-width="1" stroke-linecap="round" stroke="#191919"/></g><g transform="translate(377.706755,407.661265)" id="shape20"><path d="M.0,.0L80.9,.0L80.9,37.2L.0,37.2L.0,.0z" fill-rule="nonzero" fill="#ffffff" stroke-width="1" stroke="#000000"/><text xml:space="preserve" style="fill:#191919;font-family:Arial;font-size:10.00pt"><tspan y="23.6" x="9.4">Liquid feed</tspan></text></g><g transform="translate(824.298944,236.165188)" id="shape21"><path d="M.0,.0L112.8,.0L112.8,39.3L.0,39.3L.0,.0z" fill-rule="nonzero" fill="#ffffff" stroke-width="1" stroke="#000000"/><text xml:space="preserve" style="fill:#191919;font-family:Arial;font-size:10.00pt"><tspan y="24.7" x="37.9">Gasoff</tspan></text></g><g transform="translate(746.314041,58.165188)" id="shape22"><path d="M.0,.0L66.8,.0L66.8,37.2L.0,37.2L.0,.0z" fill-rule="nonzero" fill="#ffffff" stroke-width="1" stroke="#000000"/><text xml:space="preserve" style="fill:#191919;font-family:Arial;font-size:10.00pt"><tspan y="23.6" x="21.9">CO</tspan><tspan y="26.2" textLength="4.0" style="font-size:6.50pt" x="40.9">2</tspan></text></g><g transform="translate(603.827927,198.925267)" id="shape23"><path d="M.0,.0L80.9,.0L80.9,37.2L.0,37.2L.0,.0z" fill-rule="nonzero" fill="#ffffff" stroke-width="1" stroke="#000000"/><text xml:space="preserve" style="fill:#191919;font-family:Arial;font-size:10.00pt"><tspan y="23.6" x="14.4">Gas feed</tspan></text></g><g transform="translate(880.690825,217.897152)" id="shape24"><path d="M.0,.0L.0,-141.7L176.0,-141.7" fill="none" stroke-width="1" stroke="#191919"/><path d="M176.0,-144.7L182.0,-141.7L176.0,-138.7L176.0,-144.7" fill="#191919" stroke-width="1" stroke-linecap="round" stroke="#191919"/></g><g transform="translate(932.259843,58.165188)" id="shape25"><path d="M.0,.0L80.9,.0L80.9,37.2L.0,37.2L.0,.0z" fill-rule="nonzero" fill="#ffffff" stroke-width="1" stroke="#000000"/><text xml:space="preserve" style="fill:#191919;font-family:Arial;font-size:10.00pt"><tspan y="23.6" x="23.4">Purge</tspan></text></g><path transform="translate(915.025629,575.854473)" d="M.0,114.0C7.7,118.7,18.3,121.3,29.3,121.3C40.3,121.3,50.8,118.7,58.5,114.0L58.5,7.3C50.8,2.6,40.3,.0,29.3,.0C18.3,.0,7.7,2.6,.0,7.3L.0,114.0z" fill-rule="nonzero" id="shape26" fill="#ffffff" stroke-width="1" stroke="#000000"/><g transform="translate(910.499808,441.252602)" id="shape27"><path d="M.0,.0L152.2,.0L152.2,195.2L69.0,195.2" fill="none" stroke-width="1" stroke="#191919"/><path d="M69.0,198.2L63.0,195.2L69.0,192.2L69.0,198.2" fill="#191919" stroke-width="1" stroke-linecap="round" stroke="#191919"/></g><g transform="translate(674.500000,614.002219)" id="shape28"><path d="M.0,22.5C-0.0,10.1,10.1,.0,22.5,.0C34.9,-0.0,45.0,10.1,45.0,22.5C45.0,34.9,34.9,45.0,22.5,45.0C10.1,45.0,.0,34.9,.0,22.5z" fill-rule="nonzero" fill="#ffffff"/><path d="M.0,21.9L5.6,21.9L16.9,11.3L29.3,33.8L39.4,21.9L45.0,21.9M.0,22.5C-0.0,10.1,10.1,.0,22.5,.0C34.9,-0.0,45.0,10.1,45.0,22.5C45.0,34.9,34.9,45.0,22.5,45.0C10.1,45.0,.0,34.9,.0,22.5z" fill="none" stroke-width="1" stroke="#000000"/></g><path transform="translate(420.691758,575.854219)" d="M.0,114.0C7.7,118.7,18.3,121.3,29.3,121.3C40.3,121.3,50.8,118.7,58.5,114.0L58.5,7.3C50.8,2.6,40.3,.0,29.3,.0C18.3,.0,7.7,2.6,.0,7.3L.0,114.0z" fill-rule="nonzero" id="shape29" fill="#ffffff" stroke-width="1" stroke="#000000"/><g transform="translate(944.285568,575.854473)" id="shape30"><path d="M.0,.0L.0,-35.7L-150.9,-35.7" fill="none" stroke-width="1" stroke="#191919"/><path d="M-150.9,-32.7L-156.9,-35.7L-150.9,-38.7L-150.9,-32.7" fill="#191919" stroke-width="1" stroke-linecap="round" stroke="#191919"/></g><g transform="translate(944.285568,697.150219)" id="shape31"><path d="M.0,.0L.0,39.4L-156.0,39.4L-156.0,-60.6L-218.8,-60.6" fill="none" stroke-width="1" stroke="#191919"/><path d="M-218.8,-57.6L-224.8,-60.6L-218.8,-63.6L-218.8,-57.6" fill="#191919" stroke-width="1" stroke-linecap="round" stroke="#191919"/></g><g transform="translate(674.500000,636.502219)" id="shape32"><path d="M.0,.0L-189.3,.0" fill="none" stroke-width="1" stroke="#191919"/><path d="M-189.3,3.0L-195.3,.0L-189.3,-3.0L-189.3,3.0" fill="#191919" stroke-width="1" stroke-linecap="round" stroke="#191919"/></g><g transform="translate(449.951708,697.150219)" id="shape33"><path d="M.0,.0L.0,39.4L-125.0,39.4L-125.0,-62.2L-331.0,-62.2" fill="none" stroke-width="1" stroke="#191919"/><path d="M-331.0,-59.2L-337.0,-62.2L-331.0,-65.2L-331.0,-59.2" fill="#191919" stroke-width="1" stroke-linecap="round" stroke="#191919"/></g><g transform="translate(449.951708,575.854219)" id="shape34"><path d="M.0,.0L.0,-38.9L-104.0,-38.9" fill="none" stroke-width="1" stroke="#191919"/><path d="M-104.0,-35.9L-110.0,-38.9L-104.0,-41.9L-104.0,-35.9" fill="#191919" stroke-width="1" stroke-linecap="round" stroke="#191919"/></g><g transform="translate(926.691658,423.484688)" id="shape35"><path d="M.0,.0L112.8,.0L112.8,39.3L.0,39.3L.0,.0z" fill-rule="nonzero" fill="#ffffff" stroke-width="1" stroke="#000000"/><text xml:space="preserve" style="fill:#191919;font-family:Arial;font-size:10.00pt"><tspan y="24.7" x="21.9">Diluted urea</tspan></text></g><g transform="translate(817.907658,520.514488)" id="shape36"><path d="M.0,.0L112.8,.0L112.8,39.3L.0,39.3L.0,.0z" fill-rule="nonzero" fill="#ffffff" stroke-width="1" stroke="#000000"/><text xml:space="preserve" style="fill:#191919;font-family:Arial;font-size:10.00pt"><tspan y="24.7" x="32.4">Gasoff 2</tspan></text></g><g transform="translate(731.691658,673.165188)" id="shape37"><path d="M.0,.0L112.8,.0L112.8,39.3L.0,39.3L.0,.0z" fill-rule="nonzero" fill="#ffffff" stroke-width="1" stroke="#000000"/><text xml:space="preserve" style="fill:#191919;font-family:Arial;font-size:10.00pt"><tspan y="24.7" x="16.4">Aqueous urea</tspan></text></g><g transform="translate(513.216000,614.002219)" id="shape38"><path d="M.0,.0L112.8,.0L112.8,39.3L.0,39.3L.0,.0z" fill-rule="nonzero" fill="#ffffff" stroke-width="1" stroke="#000000"/><text xml:space="preserve" style="fill:#191919;font-family:Arial;font-size:10.00pt"><tspan y="24.7" x="34.4">To flash</tspan></text></g><g transform="translate(377.706755,519.390223)" id="shape39"><path d="M.0,.0L112.8,.0L112.8,39.3L.0,39.3L.0,.0z" fill-rule="nonzero" fill="#ffffff" stroke-width="1" stroke="#000000"/><text xml:space="preserve" style="fill:#191919;font-family:Arial;font-size:10.00pt"><tspan y="24.7" x="32.4">Gasoff 3</tspan></text></g><g transform="translate(174.475264,616.851519)" id="shape40"><path d="M.0,.0L112.8,.0L112.8,39.3L.0,39.3L.0,.0z" fill-rule="nonzero" fill="#ffffff" stroke-width="1" stroke="#000000"/><text xml:space="preserve" style="fill:#191919;font-family:Arial;font-size:10.00pt"><tspan y="16.7" x="17.9">Concentrated </tspan><tspan y="32.7" x="43.9">urea</tspan></text></g><g transform="translate(260.733500,111.400825)" id="shape41"><path d="M.0,.0L.0,-35.4L-194.7,-35.4" fill="none" stroke-width="1" stroke="#191919"/><path d="M-194.7,-32.4L-200.7,-35.4L-194.7,-38.4L-194.7,-32.4" fill="#191919" stroke-width="1" stroke-linecap="round" stroke="#191919"/></g><g transform="translate(113.000000,57.380039)" id="shape42"><path d="M.0,.0L80.9,.0L80.9,37.2L.0,37.2L.0,.0z" fill-rule="nonzero" fill="#ffffff" stroke-width="1" stroke="#000000"/><text xml:space="preserve" style="fill:#191919;font-family:Arial;font-size:10.00pt"><tspan y="23.6" x="20.4">Vapors</tspan></text></g><g transform="translate(140.000000,123.300741)" id="shape43"><text xml:space="preserve" style="fill:#191919;font-family:Arial;font-size:12.00pt;font-weight:bold"><tspan y="34.0" x="32.5">Flash 1</tspan></text></g><g transform="translate(174.475264,368.850394)" id="shape44"><text xml:space="preserve" style="fill:#191919;font-family:Arial;font-size:12.00pt;font-weight:bold"><tspan y="34.0" x="31.0">Pump 2</tspan></text></g><g transform="translate(174.475264,493.351020)" id="shape45"><text xml:space="preserve" style="fill:#191919;font-family:Arial;font-size:12.00pt;font-weight:bold"><tspan y="34.0" x="31.0">Pump 1</tspan></text></g><g transform="translate(370.490755,219.466606)" id="shape46"><text xml:space="preserve" style="fill:#191919;font-family:Arial;font-size:12.00pt;font-weight:bold"><tspan y="34.0" x="13.0">Urea reactor</tspan></text></g><g transform="translate(915.025629,324.658760)" id="shape47"><text xml:space="preserve" style="fill:#191919;font-family:Arial;font-size:12.00pt;font-weight:bold"><tspan y="24.0" x="18.5">Carbamate </tspan><tspan y="44.0" x="12.0">decomposer</tspan></text></g><g transform="translate(817.907658,575.854473)" id="shape48"><text xml:space="preserve" style="fill:#191919;font-family:Arial;font-size:12.00pt;font-weight:bold"><tspan y="34.0" x="32.5">Flash 2</tspan></text></g><g transform="translate(318.000000,569.000000)" id="shape49"><text xml:space="preserve" style="fill:#191919;font-family:Arial;font-size:12.00pt;font-weight:bold"><tspan y="34.0" x="32.5">Flash 3</tspan></text></g><g transform="translate(635.842088,543.839249)" id="shape50"><text xml:space="preserve" style="fill:#191919;font-family:Arial;font-size:12.00pt;font-weight:bold"><tspan y="24.0" x="42.5">Heat </tspan><tspan y="44.0" x="19.5">exchanger</tspan></text></g></g></svg>