<svg xmlns:xlink="http://www.w3.org/1999/xlink" width="1133" height="804" xmlns:ev="http://www.w3.org/2001/xml-events" xmlns="http://www.w3.org/2000/svg" viewBox="0 0 1133 804"><defs/><g id="page1" transform="translate(5.5,5.5)"><rect width="1123" height="794" y="0" fill="#ffffff" x="0"/><g id="shape1" transform="translate(492.410000,187.824000)"><path d="M.0,266.0C2.7,274.9,15.7,281.4,30.9,281.4C46.0,281.4,59.0,274.9,61.7,266.0L61.7,15.4C59.0,6.5,46.0,-0.0,30.9,-0.0C15.7,-0.0,2.7,6.5,.0,15.4L.0,266.0z" fill-rule="nonzero" fill="#ffffff"/><path stroke-width="1" d="M.0,266.0C2.7,274.9,15.7,281.4,30.9,281.4C46.0,281.4,59.0,274.9,61.7,266.0L61.7,15.4C59.0,6.5,46.0,-0.0,30.9,-0.0C15.7,-0.0,2.7,6.5,.0,15.4L.0,266.0zM.0,266.0L61.7,266.0M.0,15.4L61.7,15.4" fill="none" stroke="#000000"/></g><path d="M.0,71.6C5.3,74.9,12.6,76.7,20.2,76.7C27.8,76.7,35.1,74.9,40.4,71.6L40.4,5.0C35.1,1.8,27.8,.0,20.2,.0C12.6,.0,5.3,1.8,.0,5.1L.0,71.6z" fill-rule="nonzero" stroke-width="1" id="shape2" fill="#ffffff" transform="translate(238.060000,119.824500)" stroke="#000000"/><g id="shape3" transform="translate(523.260000,187.824000)"><path stroke-width="1" d="M.0,.0L.0,-29.7L-238.8,-29.7" fill="none" stroke="#323232"/><path stroke-width="1" d="M-238.8,-26.7L-244.8,-29.7L-238.8,-32.7L-238.8,-26.7" fill="#323232" stroke-linecap="round" stroke="#323232"/></g><path d="M.0,19.9C.0,30.8,8.9,39.7,19.9,39.7C30.8,39.7,39.7,30.8,39.7,19.9C39.7,8.9,30.8,.0,19.9,.0C8.9,-0.0,.0,8.9,.0,19.9zM7.9,35.8L.0,43.7L39.7,43.7L31.8,35.8C24.1,41.0,15.6,41.0,7.9,35.8z" fill-rule="nonzero" stroke-width="1" id="shape4" fill="#ffffff" transform="translate(212.601500,308.662500)" stroke="#000000"/><path d="M.0,19.9C.0,30.8,8.9,39.7,19.9,39.7C30.8,39.7,39.7,30.8,39.7,19.9C39.7,8.9,30.8,.0,19.9,.0C8.9,-0.0,.0,8.9,.0,19.9zM7.9,35.8L.0,43.7L39.7,43.7L31.8,35.8C24.1,41.0,15.6,41.0,7.9,35.8z" fill-rule="nonzero" stroke-width="1" id="shape5" fill="#ffffff" transform="translate(212.601500,414.187500)" stroke="#000000"/><g id="shape6" transform="translate(252.669000,196.171000)"><path stroke-width="1" d="M.0,.0L.0,26.0L-204.1,26.0L-204.1,132.4L-46.1,132.4" fill="none" stroke="#323232"/><path stroke-width="1" d="M-46.1,129.4L-40.1,132.4L-46.1,135.4L-46.1,129.4" fill="#323232" stroke-linecap="round" stroke="#323232"/></g><g id="shape7" transform="translate(258.260000,119.825000)"><path stroke-width="1" d="M.0,.0L.0,-44.1L-203.7,-44.1" fill="none" stroke="#323232"/><path stroke-width="1" d="M-203.7,-41.1L-209.7,-44.1L-203.7,-47.1L-203.7,-41.1" fill="#323232" stroke-linecap="round" stroke="#323232"/></g><g id="shape8" transform="translate(252.324000,328.524000)"><path stroke-width="1" d="M.0,.0L87.8,.0L87.8,105.5L234.1,105.5" fill="none" stroke="#323232"/><path stroke-width="1" d="M234.1,102.5L240.1,105.5L234.1,108.5L234.1,102.5" fill="#323232" stroke-linecap="round" stroke="#323232"/></g><path stroke-width="1" d="M.0,.0L240.1,.0" id="shape9" fill="none" transform="translate(252.324000,434.049000)" stroke="#323232"/><g id="shape10" transform="translate(212.601000,434.049000)"><path stroke-width="1" d="M-6.0,.0L-164.1,.0" fill="none" stroke="#323232"/><path stroke-width="1" d="M-6.0,-3.0L.0,.0L-6.0,3.0L-6.0,-3.0" fill="#323232" stroke-linecap="round" stroke="#323232"/></g><path stroke-width="1" d="M.0,.0L.0,95.6L-291.6,95.6" id="shape11" fill="none" transform="translate(340.150000,434.049000)" stroke="#323232"/><g id="shape12" transform="translate(983.150000,433.876000)"><path d="M.0,156.9C2.7,165.8,15.7,172.3,30.9,172.3C46.0,172.3,59.0,165.8,61.7,156.9L61.7,15.4C59.0,6.5,46.0,-0.0,30.9,-0.0C15.7,-0.0,2.7,6.5,.0,15.4L.0,156.9z" fill-rule="nonzero" fill="#ffffff"/><path stroke-width="1" d="M.0,156.9C2.7,165.8,15.7,172.3,30.9,172.3C46.0,172.3,59.0,165.8,61.7,156.9L61.7,15.4C59.0,6.5,46.0,-0.0,30.9,-0.0C15.7,-0.0,2.7,6.5,.0,15.4L.0,156.9zM.0,156.9L61.7,156.9M.0,15.4L61.7,15.4" fill="none" stroke="#000000"/></g><path d="M.0,71.6C5.3,74.9,12.6,76.7,20.2,76.7C27.8,76.7,35.1,74.9,40.4,71.6L40.4,5.0C35.1,1.8,27.8,.0,20.2,.0C12.6,.0,5.3,1.8,.0,5.1L.0,71.6z" fill-rule="nonzero" stroke-width="1" id="shape13" fill="#ffffff" transform="translate(748.430000,392.545500)" stroke="#000000"/><g id="shape14" transform="translate(768.630000,392.545000)"><path stroke-width="1" d="M.0,.0L.0,-169.5L-208.5,-169.5" fill="none" stroke="#323232"/><path stroke-width="1" d="M-208.5,-166.5L-214.5,-169.5L-208.5,-172.5L-208.5,-166.5" fill="#323232" stroke-linecap="round" stroke="#323232"/></g><path stroke-width="1" d="M.0,.0L.0,-138.6L-245.4,-138.6" id="shape15" fill="none" transform="translate(1014.000000,433.876000)" stroke="#323232"/><g id="shape16" transform="translate(1014.000000,433.876000)"><path stroke-width="1" d="M.0,.0L.0,-321.1L39.3,-321.1" fill="none" stroke="#323232"/><path stroke-width="1" d="M39.3,-324.1L45.3,-321.1L39.3,-318.1L39.3,-324.1" fill="#323232" stroke-linecap="round" stroke="#323232"/></g><g id="group17" transform="translate(489.260000,608.675000)"><path d="M.0,.0L68.0,.0L68.0,86.0L.0,86.0L.0,.0z" fill-rule="nonzero" stroke-width="1" id="shape18" fill="#ffffff" transform="translate(0.000000,-0.000100)" stroke="#000000"/><path d="M.0,.0L68.0,.0L33.6,32.0L.0,.0z" fill-rule="nonzero" stroke-width="1" id="shape19" fill="#ffffff" transform="translate(0.000000,86.025900)" stroke="#000000"/></g><g id="shape20" transform="translate(1044.850000,584.638000)"><path stroke-width="1" d="M.0,.0L27.1,.0L27.1,83.0L-481.6,83.0" fill="none" stroke="#323232"/><path stroke-width="1" d="M-481.6,86.0L-487.6,83.0L-481.6,80.0L-481.6,86.0" fill="#323232" stroke-linecap="round" stroke="#323232"/></g><g id="shape21" transform="translate(523.260000,608.675000)"><path stroke-width="1" d="M.0,.0L.0,-60.3L187.3,-60.3" fill="none" stroke="#323232"/><path stroke-width="1" d="M187.3,-63.3L193.3,-60.3L187.3,-57.3L187.3,-63.3" fill="#323232" stroke-linecap="round" stroke="#323232"/></g><g id="shape22" transform="translate(489.260000,667.675000)"><path stroke-width="1" d="M.0,.0L-267.5,.0" fill="none" stroke="#323232"/><path stroke-width="1" d="M-267.5,3.0L-273.5,.0L-267.5,-3.0L-267.5,3.0" fill="#323232" stroke-linecap="round" stroke="#323232"/></g><g id="shape23" transform="translate(72.150000,421.049000)"><path d="M.0,.0L120.0,.0L120.0,26.0L.0,26.0L.0,.0z" fill-rule="nonzero" stroke-width="1" fill="#ffffff" stroke="#000000"/><text style="fill:#191919;font-family:Arial;font-size:10.00pt" xml:space="preserve"><tspan y="18.0" x="22.0">NH</tspan><tspan textLength="4.0" style="font-size:6.50pt" y="20.6" x="40.0">3</tspan><tspan textLength="54.0" y="18.0" x="44.0"> make up</tspan></text></g><g id="shape24" transform="translate(72.150000,518.026000)"><path d="M.0,.0L120.0,.0L120.0,26.0L.0,26.0L.0,.0z" fill-rule="nonzero" stroke-width="1" fill="#ffffff" stroke="#000000"/><text style="fill:#191919;font-family:Arial;font-size:10.00pt" xml:space="preserve"><tspan y="18.0" x="25.0">Rich solvent</tspan></text></g><g id="shape25" transform="translate(72.150000,315.524000)"><path d="M.0,.0L120.0,.0L120.0,26.0L.0,26.0L.0,.0z" fill-rule="nonzero" stroke-width="1" fill="#ffffff" stroke="#000000"/><text style="fill:#191919;font-family:Arial;font-size:10.00pt" xml:space="preserve"><tspan y="18.0" x="36.5">Recycle</tspan></text></g><g id="shape26" transform="translate(352.150000,421.049000)"><path d="M.0,.0L120.0,.0L120.0,26.0L.0,26.0L.0,.0z" fill-rule="nonzero" stroke-width="1" fill="#ffffff" stroke="#000000"/><text style="fill:#191919;font-family:Arial;font-size:10.00pt" xml:space="preserve"><tspan y="18.0" x="29.0">Liquid feed</tspan></text></g><g id="shape27" transform="translate(352.150000,145.164000)"><path d="M.0,.0L120.0,.0L120.0,26.0L.0,26.0L.0,.0z" fill-rule="nonzero" stroke-width="1" fill="#ffffff" stroke="#000000"/><text style="fill:#191919;font-family:Arial;font-size:10.00pt" xml:space="preserve"><tspan y="18.0" x="43.5">Vapor</tspan></text></g><g id="shape28" transform="translate(91.150000,67.025700)"><path d="M.0,.0L120.0,.0L120.0,26.0L.0,26.0L.0,.0z" fill-rule="nonzero" stroke-width="1" fill="#ffffff" stroke="#000000"/><text style="fill:#191919;font-family:Arial;font-size:10.00pt" xml:space="preserve"><tspan y="18.0" x="53.5">N</tspan><tspan textLength="4.0" style="font-size:6.50pt" y="20.6" x="62.5">2</tspan></text></g><g id="shape29" transform="translate(624.260000,212.026000)"><path d="M.0,.0L120.0,.0L120.0,26.0L.0,26.0L.0,.0z" fill-rule="nonzero" stroke-width="1" fill="#ffffff" stroke="#000000"/><text style="fill:#191919;font-family:Arial;font-size:10.00pt" xml:space="preserve"><tspan y="18.0" x="34.0">Gas feed</tspan></text></g><g id="shape30" transform="translate(768.630000,469.224000)"><path stroke-width="1" d="M.0,.0L.0,115.4L208.5,115.4" fill="none" stroke="#323232"/><path stroke-width="1" d="M208.5,112.4L214.5,115.4L208.5,118.4L208.5,112.4" fill="#323232" stroke-linecap="round" stroke="#323232"/></g><g id="shape31" transform="translate(805.520000,551.701000)"><path d="M.0,.0L120.0,.0L120.0,64.0L.0,64.0L.0,.0z" fill-rule="nonzero" stroke-width="1" fill="#ffffff" stroke="#000000"/><text style="fill:#191919;font-family:Arial;font-size:10.00pt" xml:space="preserve"><tspan y="29.0" x="19.0">Diluted urea &amp; </tspan><tspan y="45.0" x="29.5">carbamate</tspan></text></g><g id="shape32" transform="translate(708.630000,331.026000)"><path d="M.0,.0L120.0,.0L120.0,26.0L.0,26.0L.0,.0z" fill-rule="nonzero" stroke-width="1" fill="#ffffff" stroke="#000000"/><text style="fill:#191919;font-family:Arial;font-size:10.00pt" xml:space="preserve"><tspan y="18.0" x="25.5">Water vapor</tspan></text></g><g id="shape33" transform="translate(844.150000,285.026000)"><path d="M.0,.0L120.0,.0L120.0,26.0L.0,26.0L.0,.0z" fill-rule="nonzero" stroke-width="1" fill="#ffffff" stroke="#000000"/><text style="fill:#191919;font-family:Arial;font-size:10.00pt" xml:space="preserve"><tspan y="18.0" x="41.5">Gasoff</tspan></text></g><g id="shape34" transform="translate(954.000000,170.504000)"><path d="M.0,.0L120.0,.0L120.0,26.0L.0,26.0L.0,.0z" fill-rule="nonzero" stroke-width="1" fill="#ffffff" stroke="#000000"/><text style="fill:#191919;font-family:Arial;font-size:10.00pt" xml:space="preserve"><tspan y="18.0" x="43.0">Purge</tspan></text></g><g id="shape35" transform="translate(748.430000,654.675000)"><path d="M.0,.0L120.0,.0L120.0,26.0L.0,26.0L.0,.0z" fill-rule="nonzero" stroke-width="1" fill="#ffffff" stroke="#000000"/><text style="fill:#191919;font-family:Arial;font-size:10.00pt" xml:space="preserve"><tspan y="18.0" x="20.0">Aqueous urea</tspan></text></g><g id="shape36" transform="translate(555.520000,534.701000)"><path d="M.0,.0L120.0,.0L120.0,26.0L.0,26.0L.0,.0z" fill-rule="nonzero" stroke-width="1" fill="#ffffff" stroke="#000000"/><text style="fill:#191919;font-family:Arial;font-size:10.00pt" xml:space="preserve"><tspan y="18.0" x="25.5">Water vapor</tspan></text></g><g id="shape37" transform="translate(306.520000,654.675000)"><path d="M.0,.0L120.0,.0L120.0,26.0L.0,26.0L.0,.0z" fill-rule="nonzero" stroke-width="1" fill="#ffffff" stroke="#000000"/><text style="fill:#191919;font-family:Arial;font-size:10.00pt" xml:space="preserve"><tspan y="18.0" x="7.0">Concentrated urea</tspan></text></g><g id="shape38" transform="translate(555.000000,434.049000)"><path stroke-width="1" d="M.0,.0L187.4,.0" fill="none" stroke="#323232"/><path stroke-width="1" d="M187.4,-3.0L193.4,.0L187.4,3.0L187.4,-3.0" fill="#323232" stroke-linecap="round" stroke="#323232"/></g><g id="shape39" transform="translate(578.520000,398.885000)"><path d="M.0,.0L120.0,.0L120.0,64.0L.0,64.0L.0,.0z" fill-rule="nonzero" stroke-width="1" fill="#ffffff" stroke="#000000"/><text style="fill:#191919;font-family:Arial;font-size:10.00pt" xml:space="preserve"><tspan y="21.0" x="19.0">Diluted urea &amp; </tspan><tspan y="37.0" x="6.0">carbamate + water </tspan><tspan y="53.0" x="39.0">excess</tspan></text></g><g id="shape40" transform="translate(140.520000,145.164000)"><text style="fill:#191919;font-family:Arial;font-size:12.00pt;font-weight:bold" xml:space="preserve"><tspan y="23.5" x="32.5">Flash 1</tspan></text></g><g id="shape41" transform="translate(172.463000,348.386000)"><text style="fill:#191919;font-family:Arial;font-size:12.00pt;font-weight:bold" xml:space="preserve"><tspan y="23.5" x="31.0">Pump 1</tspan></text></g><g id="shape42" transform="translate(172.463000,453.911000)"><text style="fill:#191919;font-family:Arial;font-size:12.00pt;font-weight:bold" xml:space="preserve"><tspan y="23.5" x="31.0">Pump 2</tspan></text></g><g id="shape43" transform="translate(372.410000,270.201000)"><text style="fill:#191919;font-family:Arial;font-size:12.00pt;font-weight:bold" xml:space="preserve"><tspan y="23.5" x="13.0">Urea reactor</tspan></text></g><g id="shape44" transform="translate(760.520000,412.049000)"><text style="fill:#191919;font-family:Arial;font-size:12.00pt;font-weight:bold" xml:space="preserve"><tspan y="23.5" x="32.5">Flash 2</tspan></text></g><g id="shape45" transform="translate(863.150000,472.375000)"><text style="fill:#191919;font-family:Arial;font-size:12.00pt;font-weight:bold" xml:space="preserve"><tspan y="23.0" x="18.5">Carbamate </tspan><tspan y="43.0" x="12.0">decomposer</tspan></text></g><g id="shape46" transform="translate(389.520000,580.701000)"><text style="fill:#191919;font-family:Arial;font-size:12.00pt;font-weight:bold" xml:space="preserve"><tspan y="23.5" x="17.5">Evaporator</tspan></text></g></g></svg>