<svg viewBox="0 0 1133 804" xmlns:ev="http://www.w3.org/2001/xml-events" xmlns="http://www.w3.org/2000/svg" height="804" width="1133" xmlns:xlink="http://www.w3.org/1999/xlink"><defs/><g id="page1" transform="translate(5.5,5.5)"><rect y="0" x="0" height="794" fill="#ffffff" width="1123"/><path d="M.0,19.7C.0,30.5,8.8,39.3,19.7,39.3C30.5,39.3,39.3,30.5,39.3,19.7C39.3,8.8,30.5,.0,19.7,.0C8.8,-0.0,.0,8.8,.0,19.7zM7.9,35.4L.0,43.2L39.3,43.2L31.4,35.4C23.8,40.6,15.5,40.6,7.9,35.4z" id="shape1" stroke-width="1" fill="#ffffff" fill-rule="nonzero" stroke="#000000" transform="translate(196.859143,217.062292)"/><g id="shape2" transform="translate(196.859143,236.712992)"><path d="M-8.0,.0L-142.1,.0" stroke-width="1" fill="none" stroke="#191919"/><path d="M-8.0,-4.0L.0,.0L-8.0,4.0L-8.0,-4.0" stroke-linecap="round" stroke-width="1" fill="#191919" stroke="#191919"/></g><g id="group3" transform="translate(326.259843,64.963692)"><path d="M.0,38.2C.0,38.2,17.9,65.4,49.2,65.4C80.5,65.4,99.0,38.2,99.0,38.2L99.0,6.4C99.0,6.4,99.0,.0,91.2,.0C83.3,.0,6.2,.0,6.2,.0C6.2,.0,.0,1.2,.0,6.4C.0,11.6,.0,39.4,.0,38.2z" id="shape4" stroke-width="1" fill="#ffffff" fill-rule="nonzero" stroke="#000000" transform="translate(0.000000,125.948665)"/><path d="M.0,22.0C.0,22.0,11.2,.0,44.2,.0C77.2,.0,86.1,22.0,86.1,22.0L86.1,96.1C86.1,96.1,69.3,118.1,44.2,118.1C19.0,118.1,.0,96.1,.0,96.1L.0,22.0z" id="shape5" stroke-width="1" fill="#ffffff" fill-rule="nonzero" stroke="#000000" transform="translate(5.582016,66.883007)"/><path d="M.0,.0L18.5,.0L18.5,31.8L.0,31.8L.0,.0z" id="shape6" stroke-width="1" fill="#ffffff" fill-rule="nonzero" stroke="#000000" transform="translate(39.692317,-0.000306)"/><path d="M.0,.0L28.0,.0" id="shape7" stroke-width="1" fill="none" stroke="#000000" transform="translate(34.659554,9.265119)"/><path d="M.0,.0L28.0,.0" id="shape8" stroke-width="1" fill="none" stroke="#000000" transform="translate(34.659554,20.556934)"/><path d="M3.7,.0L32.2,13.3C32.2,13.3,38.4,6.4,32.2,.0L3.7,13.9C3.7,13.9,-4.7,6.9,3.7,.0z" id="shape9" stroke-width="1" fill="#ffffff" fill-rule="nonzero" stroke="#000000" transform="translate(32.042934,144.768519)"/><path d="M.0,.0L.0,118.7" id="shape10" stroke-width="1" fill="none" stroke="#000000" transform="translate(48.918870,32.138357)"/></g><g id="shape11" transform="translate(236.160543,236.712992)"><path d="M.0,.0L20.9,.0L20.9,-65.6L89.3,-65.6" stroke-width="1" fill="none" stroke="#191919"/><path d="M89.3,-68.6L95.3,-65.6L89.3,-62.6L89.3,-68.6" stroke-linecap="round" stroke-width="1" fill="#191919" stroke="#191919"/></g><g id="shape12" transform="translate(398.447376,135.561965)"><path d="M.0,.0L41.5,.0L41.5,-64.6L207.6,-64.6" stroke-width="1" fill="none" stroke="#191919"/><path d="M207.6,-67.6L213.6,-64.6L207.6,-61.6L207.6,-67.6" stroke-linecap="round" stroke-width="1" fill="#191919" stroke="#191919"/></g><path d="M.0,19.7C.0,30.5,8.8,39.3,19.7,39.3C30.5,39.3,39.3,30.5,39.3,19.7C39.3,8.8,30.5,.0,19.7,.0C8.8,-0.0,.0,8.8,.0,19.7zM7.9,35.4L.0,43.2L39.3,43.2L31.4,35.4C23.8,40.6,15.5,40.6,7.9,35.4z" id="shape13" stroke-width="1" fill="#ffffff" fill-rule="nonzero" stroke="#000000" transform="translate(544.368985,198.744045)"/><g id="shape14" transform="translate(425.775633,218.188197)"><path d="M.0,.0L58.8,.0L58.8,.2L112.6,.2" stroke-width="1" fill="none" stroke="#191919"/><path d="M112.6,-2.8L118.6,.2L112.6,3.2L112.6,-2.8" stroke-linecap="round" stroke-width="1" fill="#191919" stroke="#191919"/></g><g id="group15" transform="matrix(0.000000,-1.000000,1.000000,0.000000,710.413900,261.363692)"><path d="M.0,.0L85.9,.0L85.9,85.9L.0,85.9L.0,.0z" id="shape16" stroke-width="1" fill="#ffffff" fill-rule="nonzero" stroke="#000000"/><g id="group17" transform="translate(8.593789,9.023479)"><path d="M.0,.0L.0,68.0L68.8,68.0L68.8,.0" id="shape18" stroke-width="1" fill="none" stroke="#000000" transform="translate(0.000000,-0.373830)"/><path d="M.0,.0L.0,26.2" id="shape19" stroke-width="1" fill="none" stroke="#000000" transform="translate(34.375157,68.410860)"/></g></g><g id="shape20" transform="translate(583.670385,218.394745)"><path d="M.0,.0L120.7,.0" stroke-width="1" fill="none" stroke="#191919"/><path d="M120.7,-3.0L126.7,.0L120.7,3.0L120.7,-3.0" stroke-linecap="round" stroke-width="1" fill="#191919" stroke="#191919"/></g><g id="group21" transform="translate(908.759843,88.012992)"><path d="M.0,38.2C.0,38.2,17.9,65.4,49.2,65.4C80.5,65.4,99.0,38.2,99.0,38.2L99.0,6.4C99.0,6.4,99.0,.0,91.2,.0C83.3,.0,6.2,.0,6.2,.0C6.2,.0,.0,1.2,.0,6.4C.0,11.6,.0,39.4,.0,38.2z" id="shape22" stroke-width="1" fill="#ffffff" fill-rule="nonzero" stroke="#000000" transform="translate(0.000000,125.948300)"/><path d="M.0,22.0C.0,22.0,11.2,.0,44.2,.0C77.2,.0,86.1,22.0,86.1,22.0L86.1,96.1C86.1,96.1,69.3,118.1,44.2,118.1C19.0,118.1,.0,96.1,.0,96.1L.0,22.0z" id="shape23" stroke-width="1" fill="#ffffff" fill-rule="nonzero" stroke="#000000" transform="translate(5.582000,66.883300)"/><path d="M.0,.0L18.5,.0L18.5,31.8L.0,31.8L.0,.0z" id="shape24" stroke-width="1" fill="#ffffff" fill-rule="nonzero" stroke="#000000" transform="translate(39.692350,-0.000300)"/><path d="M.0,.0L28.0,.0" id="shape25" stroke-width="1" fill="none" stroke="#000000" transform="translate(34.659600,9.265120)"/><path d="M.0,.0L28.0,.0" id="shape26" stroke-width="1" fill="none" stroke="#000000" transform="translate(34.659600,20.556900)"/><path d="M3.7,.0L32.2,13.3C32.2,13.3,38.4,6.4,32.2,.0L3.7,13.9C3.7,13.9,-4.7,6.9,3.7,.0z" id="shape27" stroke-width="1" fill="#ffffff" fill-rule="nonzero" stroke="#000000" transform="translate(32.042900,144.768100)"/><path d="M.0,.0L.0,118.7" id="shape28" stroke-width="1" fill="none" stroke="#000000" transform="translate(48.918900,32.138400)"/></g><g id="shape29" transform="translate(729.148361,261.363692)"><path d="M.0,.0L.0,35.0L124.9,35.0L124.9,-67.2L178.8,-67.2" stroke-width="1" fill="none" stroke="#191919"/><path d="M178.8,-70.2L184.8,-67.2L178.8,-64.2L178.8,-70.2" stroke-linecap="round" stroke-width="1" fill="#191919" stroke="#191919"/></g><g id="shape30" transform="translate(980.947376,158.611265)"><path d="M.0,.0L39.1,.0L39.1,-87.9L80.8,-87.9" stroke-width="1" fill="none" stroke="#191919"/><path d="M80.8,-90.9L86.8,-87.9L80.8,-84.9L80.8,-90.9" stroke-linecap="round" stroke-width="1" fill="#191919" stroke="#191919"/></g><path d="M.0,19.7C.0,30.5,8.8,39.3,19.7,39.3C30.5,39.3,39.3,30.5,39.3,19.7C39.3,8.8,30.5,.0,19.7,.0C8.8,-0.0,.0,8.8,.0,19.7zM7.9,35.4L.0,43.2L39.3,43.2L31.4,35.4C23.8,40.6,15.5,40.6,7.9,35.4z" id="shape31" stroke-width="1" fill="#ffffff" fill-rule="nonzero" stroke="#000000" transform="translate(938.609143,446.411592)"/><g id="shape32" transform="translate(1008.275633,241.237497)"><path d="M.0,.0L27.7,.0L27.7,224.8L-24.4,224.8" stroke-width="1" fill="none" stroke="#191919"/><path d="M-24.4,227.8L-30.4,224.8L-24.4,221.8L-24.4,227.8" stroke-linecap="round" stroke-width="1" fill="#191919" stroke="#191919"/></g><g id="group33" transform="matrix(0.000000,-1.000000,-1.000000,0.000000,717.362393,509.031292)"><path d="M.0,.0L85.9,.0L85.9,85.9L.0,85.9L.0,.0z" id="shape34" stroke-width="1" fill="#ffffff" fill-rule="nonzero" stroke="#000000"/><g id="group35" transform="translate(8.593700,9.023500)"><path d="M.0,.0L.0,68.0L68.8,68.0L68.8,.0" id="shape36" stroke-width="1" fill="none" stroke="#000000" transform="translate(0.000000,-0.373800)"/><path d="M.0,.0L.0,26.2" id="shape37" stroke-width="1" fill="none" stroke="#000000" transform="translate(34.375200,68.410900)"/></g></g><g id="shape38" transform="translate(938.609143,466.062292)"><path d="M.0,.0L-215.2,.0" stroke-width="1" fill="none" stroke="#191919"/><path d="M-215.2,3.0L-221.2,.0L-215.2,-3.0L-215.2,3.0" stroke-linecap="round" stroke-width="1" fill="#191919" stroke="#191919"/></g><g id="group39" transform="matrix(0.866025,-0.500000,0.500000,0.866025,229.572296,476.148884)"><path d="M.0,.0L151.2,.0L151.2,64.0L.0,64.0L.0,.0z" id="shape40" stroke-width="1" fill="#ffffff" fill-rule="nonzero" stroke="#000000"/><g id="group41" transform="translate(13.129951,12.947424)"><g id="group42"><path d="M.0,1.8C.0,.8,.9,.0,2.1,.0C3.3,.0,4.2,.8,4.2,1.8C4.2,2.8,3.3,3.6,2.1,3.6C.9,3.6,.0,2.8,.0,1.8z" id="shape43" stroke-width="1" fill="#303030" fill-rule="nonzero" stroke="#000000" transform="translate(-0.000059,-0.014093)"/><path d="M.0,1.8C.0,.8,.9,.0,2.1,.0C3.3,.0,4.2,.8,4.2,1.8C4.2,2.8,3.3,3.6,2.1,3.6C.9,3.6,.0,2.8,.0,1.8z" id="shape44" stroke-width="1" fill="#303030" fill-rule="nonzero" stroke="#000000" transform="translate(-0.000057,16.828289)"/><path d="M.0,1.8C.0,.8,.9,.0,2.1,.0C3.3,.0,4.2,.8,4.2,1.8C4.2,2.8,3.3,3.6,2.1,3.6C.9,3.6,.0,2.8,.0,1.8z" id="shape45" stroke-width="1" fill="#303030" fill-rule="nonzero" stroke="#000000" transform="translate(-0.000057,31.986164)"/></g><g id="group46" transform="translate(15.915982,0.000000)"><path d="M.0,1.8C.0,.8,.9,.0,2.1,.0C3.3,.0,4.2,.8,4.2,1.8C4.2,2.8,3.3,3.6,2.1,3.6C.9,3.6,.0,2.8,.0,1.8z" id="shape47" stroke-width="1" fill="#303030" fill-rule="nonzero" stroke="#000000" transform="translate(-0.000059,-0.014093)"/><path d="M.0,1.8C.0,.8,.9,.0,2.1,.0C3.3,.0,4.2,.8,4.2,1.8C4.2,2.8,3.3,3.6,2.1,3.6C.9,3.6,.0,2.8,.0,1.8z" id="shape48" stroke-width="1" fill="#303030" fill-rule="nonzero" stroke="#000000" transform="translate(-0.000057,16.828289)"/><path d="M.0,1.8C.0,.8,.9,.0,2.1,.0C3.3,.0,4.2,.8,4.2,1.8C4.2,2.8,3.3,3.6,2.1,3.6C.9,3.6,.0,2.8,.0,1.8z" id="shape49" stroke-width="1" fill="#303030" fill-rule="nonzero" stroke="#000000" transform="translate(-0.000057,31.986164)"/></g><g id="group50" transform="translate(29.841966,0.000000)"><path d="M.0,1.8C.0,.8,.9,.0,2.1,.0C3.3,.0,4.2,.8,4.2,1.8C4.2,2.8,3.3,3.6,2.1,3.6C.9,3.6,.0,2.8,.0,1.8z" id="shape51" stroke-width="1" fill="#303030" fill-rule="nonzero" stroke="#000000" transform="translate(-0.000059,-0.014093)"/><path d="M.0,1.8C.0,.8,.9,.0,2.1,.0C3.3,.0,4.2,.8,4.2,1.8C4.2,2.8,3.3,3.6,2.1,3.6C.9,3.6,.0,2.8,.0,1.8z" id="shape52" stroke-width="1" fill="#303030" fill-rule="nonzero" stroke="#000000" transform="translate(-0.000057,16.828289)"/><path d="M.0,1.8C.0,.8,.9,.0,2.1,.0C3.3,.0,4.2,.8,4.2,1.8C4.2,2.8,3.3,3.6,2.1,3.6C.9,3.6,.0,2.8,.0,1.8z" id="shape53" stroke-width="1" fill="#303030" fill-rule="nonzero" stroke="#000000" transform="translate(-0.000057,31.986164)"/></g><g id="group54" transform="translate(45.757520,0.000000)"><path d="M.0,1.8C.0,.8,.9,.0,2.1,.0C3.3,.0,4.2,.8,4.2,1.8C4.2,2.8,3.3,3.6,2.1,3.6C.9,3.6,.0,2.8,.0,1.8z" id="shape55" stroke-width="1" fill="#303030" fill-rule="nonzero" stroke="#000000" transform="translate(-0.000059,-0.014093)"/><path d="M.0,1.8C.0,.8,.9,.0,2.1,.0C3.3,.0,4.2,.8,4.2,1.8C4.2,2.8,3.3,3.6,2.1,3.6C.9,3.6,.0,2.8,.0,1.8z" id="shape56" stroke-width="1" fill="#303030" fill-rule="nonzero" stroke="#000000" transform="translate(-0.000057,16.828289)"/><path d="M.0,1.8C.0,.8,.9,.0,2.1,.0C3.3,.0,4.2,.8,4.2,1.8C4.2,2.8,3.3,3.6,2.1,3.6C.9,3.6,.0,2.8,.0,1.8z" id="shape57" stroke-width="1" fill="#303030" fill-rule="nonzero" stroke="#000000" transform="translate(-0.000057,31.986164)"/></g><g id="group58" transform="translate(75.598933,0.000000)"><path d="M.0,1.8C.0,.8,.9,.0,2.1,.0C3.3,.0,4.2,.8,4.2,1.8C4.2,2.8,3.3,3.6,2.1,3.6C.9,3.6,.0,2.8,.0,1.8z" id="shape59" stroke-width="1" fill="#303030" fill-rule="nonzero" stroke="#000000" transform="translate(-0.000059,-0.014093)"/><path d="M.0,1.8C.0,.8,.9,.0,2.1,.0C3.3,.0,4.2,.8,4.2,1.8C4.2,2.8,3.3,3.6,2.1,3.6C.9,3.6,.0,2.8,.0,1.8z" id="shape60" stroke-width="1" fill="#303030" fill-rule="nonzero" stroke="#000000" transform="translate(-0.000057,16.828289)"/><path d="M.0,1.8C.0,.8,.9,.0,2.1,.0C3.3,.0,4.2,.8,4.2,1.8C4.2,2.8,3.3,3.6,2.1,3.6C.9,3.6,.0,2.8,.0,1.8z" id="shape61" stroke-width="1" fill="#303030" fill-rule="nonzero" stroke="#000000" transform="translate(-0.000057,31.986164)"/></g><g id="group62" transform="translate(91.514487,0.000000)"><path d="M.0,1.8C.0,.8,.9,.0,2.1,.0C3.3,.0,4.2,.8,4.2,1.8C4.2,2.8,3.3,3.6,2.1,3.6C.9,3.6,.0,2.8,.0,1.8z" id="shape63" stroke-width="1" fill="#303030" fill-rule="nonzero" stroke="#000000" transform="translate(-0.000059,-0.014093)"/><path d="M.0,1.8C.0,.8,.9,.0,2.1,.0C3.3,.0,4.2,.8,4.2,1.8C4.2,2.8,3.3,3.6,2.1,3.6C.9,3.6,.0,2.8,.0,1.8z" id="shape64" stroke-width="1" fill="#303030" fill-rule="nonzero" stroke="#000000" transform="translate(-0.000057,16.828289)"/><path d="M.0,1.8C.0,.8,.9,.0,2.1,.0C3.3,.0,4.2,.8,4.2,1.8C4.2,2.8,3.3,3.6,2.1,3.6C.9,3.6,.0,2.8,.0,1.8z" id="shape65" stroke-width="1" fill="#303030" fill-rule="nonzero" stroke="#000000" transform="translate(-0.000057,31.986164)"/></g><g id="group66" transform="translate(105.440472,0.000000)"><path d="M.0,1.8C.0,.8,.9,.0,2.1,.0C3.3,.0,4.2,.8,4.2,1.8C4.2,2.8,3.3,3.6,2.1,3.6C.9,3.6,.0,2.8,.0,1.8z" id="shape67" stroke-width="1" fill="#303030" fill-rule="nonzero" stroke="#000000" transform="translate(-0.000059,-0.014093)"/><path d="M.0,1.8C.0,.8,.9,.0,2.1,.0C3.3,.0,4.2,.8,4.2,1.8C4.2,2.8,3.3,3.6,2.1,3.6C.9,3.6,.0,2.8,.0,1.8z" id="shape68" stroke-width="1" fill="#303030" fill-rule="nonzero" stroke="#000000" transform="translate(-0.000057,16.828289)"/><path d="M.0,1.8C.0,.8,.9,.0,2.1,.0C3.3,.0,4.2,.8,4.2,1.8C4.2,2.8,3.3,3.6,2.1,3.6C.9,3.6,.0,2.8,.0,1.8z" id="shape69" stroke-width="1" fill="#303030" fill-rule="nonzero" stroke="#000000" transform="translate(-0.000057,31.986164)"/></g><g id="group70" transform="translate(121.355900,0.000000)"><path d="M.0,1.8C.0,.8,.9,.0,2.1,.0C3.3,.0,4.2,.8,4.2,1.8C4.2,2.8,3.3,3.6,2.1,3.6C.9,3.6,.0,2.8,.0,1.8z" id="shape71" stroke-width="1" fill="#303030" fill-rule="nonzero" stroke="#000000" transform="translate(-0.000059,-0.014093)"/><path d="M.0,1.8C.0,.8,.9,.0,2.1,.0C3.3,.0,4.2,.8,4.2,1.8C4.2,2.8,3.3,3.6,2.1,3.6C.9,3.6,.0,2.8,.0,1.8z" id="shape72" stroke-width="1" fill="#303030" fill-rule="nonzero" stroke="#000000" transform="translate(-0.000057,16.828289)"/><path d="M.0,1.8C.0,.8,.9,.0,2.1,.0C3.3,.0,4.2,.8,4.2,1.8C4.2,2.8,3.3,3.6,2.1,3.6C.9,3.6,.0,2.8,.0,1.8z" id="shape73" stroke-width="1" fill="#303030" fill-rule="nonzero" stroke="#000000" transform="translate(-0.000057,31.986164)"/></g><g id="group74" transform="translate(61.672949,0.000000)"><path d="M.0,1.8C.0,.8,.9,.0,2.1,.0C3.3,.0,4.2,.8,4.2,1.8C4.2,2.8,3.3,3.6,2.1,3.6C.9,3.6,.0,2.8,.0,1.8z" id="shape75" stroke-width="1" fill="#303030" fill-rule="nonzero" stroke="#000000" transform="translate(-0.000059,-0.014093)"/><path d="M.0,1.8C.0,.8,.9,.0,2.1,.0C3.3,.0,4.2,.8,4.2,1.8C4.2,2.8,3.3,3.6,2.1,3.6C.9,3.6,.0,2.8,.0,1.8z" id="shape76" stroke-width="1" fill="#303030" fill-rule="nonzero" stroke="#000000" transform="translate(-0.000057,16.828289)"/><path d="M.0,1.8C.0,.8,.9,.0,2.1,.0C3.3,.0,4.2,.8,4.2,1.8C4.2,2.8,3.3,3.6,2.1,3.6C.9,3.6,.0,2.8,.0,1.8z" id="shape77" stroke-width="1" fill="#303030" fill-rule="nonzero" stroke="#000000" transform="translate(-0.000057,31.986164)"/></g></g></g><g id="shape78" transform="translate(646.033936,509.031292)"><path d="M.0,.0L.0,34.0L-230.3,34.0L-230.3,-80.8L-263.5,-80.8" stroke-width="1" fill="none" stroke="#191919"/><path d="M-263.5,-77.8L-269.5,-80.8L-263.5,-83.8L-263.5,-77.8" stroke-linecap="round" stroke-width="1" fill="#191919" stroke="#191919"/></g><g id="shape79" transform="translate(700.002937,509.031292)"><path d="M.0,.0L.0,33.7L126.8,33.7" stroke-width="1" fill="none" stroke="#191919"/><path d="M126.8,30.7L132.8,33.7L126.8,36.7L126.8,30.7" stroke-linecap="round" stroke-width="1" fill="#191919" stroke="#191919"/></g><path d="M.0,.0L.0,73.3L-367.3,73.3L-367.3,167.3" id="shape80" stroke-width="1" fill="none" stroke="#191919" transform="translate(783.031420,261.363692)"/><g id="shape81" transform="translate(230.572566,617.212992)"><path d="M.0,22.5C-0.0,10.1,10.1,.0,22.5,.0C34.9,-0.0,45.0,10.1,45.0,22.5C45.0,34.9,34.9,45.0,22.5,45.0C10.1,45.0,.0,34.9,.0,22.5z" fill="#ffffff" fill-rule="nonzero"/><path d="M.0,21.9L5.6,21.9L16.9,11.3L29.3,33.8L39.4,21.9L45.0,21.9M.0,22.5C-0.0,10.1,10.1,.0,22.5,.0C34.9,-0.0,45.0,10.1,45.0,22.5C45.0,34.9,34.9,45.0,22.5,45.0C10.1,45.0,.0,34.9,.0,22.5z" stroke-width="1" fill="none" stroke="#000000"/></g><g id="shape82" transform="translate(245.572301,503.861705)"><path d="M.0,.0L-92.0,.0L-92.0,135.9L-21.0,135.9" stroke-width="1" fill="none" stroke="#191919"/><path d="M-21.0,132.9L-15.0,135.9L-21.0,138.9L-21.0,132.9" stroke-linecap="round" stroke-width="1" fill="#191919" stroke="#191919"/></g><g id="group83" transform="translate(436.759843,587.167538)"><path d="M.0,.0L.0,69.4L34.0,105.1L68.0,69.4L68.0,.0L.0,.0z" id="shape84" stroke-width="1" fill="#ffffff" fill-rule="nonzero" stroke="#000000"/><path d="M.0,.0L.0,69.4" id="shape85" stroke-width="1" fill="none" stroke="#000000" transform="translate(34.000000,0.000000)"/></g><g id="shape86" transform="translate(275.572566,639.712992)"><path d="M.0,.0L155.2,.0" stroke-width="1" fill="none" stroke="#191919"/><path d="M155.2,-3.0L161.2,.0L155.2,3.0L155.2,-3.0" stroke-linecap="round" stroke-width="1" fill="#191919" stroke="#191919"/></g><g id="shape87" transform="translate(697.259843,697.712992)"><path d="M.0,22.5C-0.0,10.1,10.1,.0,22.5,.0C34.9,-0.0,45.0,10.1,45.0,22.5C45.0,34.9,34.9,45.0,22.5,45.0C10.1,45.0,.0,34.9,.0,22.5z" fill="#ffffff" fill-rule="nonzero"/><path d="M.0,21.9L5.6,21.9L16.9,11.3L29.3,33.8L39.4,21.9L45.0,21.9M.0,22.5C-0.0,10.1,10.1,.0,22.5,.0C34.9,-0.0,45.0,10.1,45.0,22.5C45.0,34.9,34.9,45.0,22.5,45.0C10.1,45.0,.0,34.9,.0,22.5z" stroke-width="1" fill="none" stroke="#000000"/></g><g id="shape88" transform="translate(64.657650,217.062292)"><path d="M.0,.0L112.8,.0L112.8,39.3L.0,39.3L.0,.0z" stroke-width="1" fill="#ffffff" fill-rule="nonzero" stroke="#000000"/><text xml:space="preserve" style="fill:#191919;font-family:Arial;font-size:10.00pt"><tspan y="16.7" x="17.9">Concentrated </tspan><tspan y="32.7" x="43.9">urea</tspan></text></g><g id="shape89" transform="translate(200.049650,150.987795)"><path d="M.0,.0L112.8,.0L112.8,39.3L.0,39.3L.0,.0z" stroke-width="1" fill="#ffffff" fill-rule="nonzero" stroke="#000000"/><text xml:space="preserve" style="fill:#191919;font-family:Arial;font-size:10.00pt"><tspan y="24.7" x="9.9">Crystallizer feed</tspan></text></g><g id="shape90" transform="translate(504.549650,50.987795)"><path d="M.0,.0L65.0,.0L65.0,39.3L.0,39.3L.0,.0z" stroke-width="1" fill="#ffffff" fill-rule="nonzero" stroke="#000000"/><text xml:space="preserve" style="fill:#191919;font-family:Arial;font-size:10.00pt"><tspan y="24.7" x="14.0">Gasoff</tspan></text></g><g id="shape91" transform="translate(452.314414,198.744045)"><path d="M.0,.0L65.0,.0L65.0,39.3L.0,39.3L.0,.0z" stroke-width="1" fill="#ffffff" fill-rule="nonzero" stroke="#000000"/><text xml:space="preserve" style="fill:#191919;font-family:Arial;font-size:10.00pt"><tspan y="24.7" x="15.5">Slurry</tspan></text></g><g id="shape92" transform="translate(603.264764,198.744045)"><path d="M.0,.0L76.7,.0L76.7,39.3L.0,39.3L.0,.0z" stroke-width="1" fill="#ffffff" fill-rule="nonzero" stroke="#000000"/><text xml:space="preserve" style="fill:#191919;font-family:Arial;font-size:10.00pt"><tspan y="16.7" x="31.9">To </tspan><tspan y="32.7" x="10.4">centrifuge</tspan></text></g><g id="shape93" transform="translate(794.049650,277.686395)"><path d="M.0,.0L112.8,.0L112.8,39.3L.0,39.3L.0,.0z" stroke-width="1" fill="#ffffff" fill-rule="nonzero" stroke="#000000"/><text xml:space="preserve" style="fill:#191919;font-family:Arial;font-size:10.00pt"><tspan y="24.7" x="4.4">Crystallizer feed 2</tspan></text></g><g id="shape94" transform="translate(559.049650,315.686395)"><path d="M.0,.0L65.0,.0L65.0,39.3L.0,39.3L.0,.0z" stroke-width="1" fill="#ffffff" fill-rule="nonzero" stroke="#000000"/><text xml:space="preserve" style="fill:#191919;font-family:Arial;font-size:10.00pt"><tspan y="24.7" x="6.0">Wet urea</tspan></text></g><g id="shape95" transform="translate(986.049650,50.987795)"><path d="M.0,.0L65.0,.0L65.0,39.3L.0,39.3L.0,.0z" stroke-width="1" fill="#ffffff" fill-rule="nonzero" stroke="#000000"/><text xml:space="preserve" style="fill:#191919;font-family:Arial;font-size:10.00pt"><tspan y="24.7" x="8.5">Gasoff 2</tspan></text></g><g id="shape96" transform="translate(1005.000000,331.349300)"><path d="M.0,.0L65.0,.0L65.0,39.3L.0,39.3L.0,.0z" stroke-width="1" fill="#ffffff" fill-rule="nonzero" stroke="#000000"/><text xml:space="preserve" style="fill:#191919;font-family:Arial;font-size:10.00pt"><tspan y="24.7" x="10.0">Slurry 2</tspan></text></g><g id="shape97" transform="translate(774.608000,446.411592)"><path d="M.0,.0L112.8,.0L112.8,39.3L.0,39.3L.0,.0z" stroke-width="1" fill="#ffffff" fill-rule="nonzero" stroke="#000000"/><text xml:space="preserve" style="fill:#191919;font-family:Arial;font-size:10.00pt"><tspan y="24.7" x="14.4">To centrifuge 2</tspan></text></g><g id="shape98" transform="translate(499.670385,524.337095)"><path d="M.0,.0L84.0,.0L84.0,39.3L.0,39.3L.0,.0z" stroke-width="1" fill="#ffffff" fill-rule="nonzero" stroke="#000000"/><text xml:space="preserve" style="fill:#191919;font-family:Arial;font-size:10.00pt"><tspan y="24.7" x="10.0">Wet urea 2</tspan></text></g><g id="shape99" transform="translate(720.215114,524.337095)"><path d="M.0,.0L84.0,.0L84.0,39.3L.0,39.3L.0,.0z" stroke-width="1" fill="#ffffff" fill-rule="nonzero" stroke="#000000"/><text xml:space="preserve" style="fill:#191919;font-family:Arial;font-size:10.00pt"><tspan y="24.7" x="23.0">Waste</tspan></text></g><g id="shape100" transform="translate(112.049650,554.337095)"><path d="M.0,.0L84.0,.0L84.0,39.3L.0,39.3L.0,.0z" stroke-width="1" fill="#ffffff" fill-rule="nonzero" stroke="#000000"/><text xml:space="preserve" style="fill:#191919;font-family:Arial;font-size:10.00pt"><tspan y="24.7" x="17.5">Dry urea</tspan></text></g><g id="shape101" transform="translate(302.000000,621.062292)"><path d="M.0,.0L84.0,.0L84.0,39.3L.0,39.3L.0,.0z" stroke-width="1" fill="#ffffff" fill-rule="nonzero" stroke="#000000"/><text xml:space="preserve" style="fill:#191919;font-family:Arial;font-size:10.00pt"><tspan y="24.7" x="10.0">Warm urea</tspan></text></g><g id="shape102" transform="translate(295.000000,438.000000)"><path d="M.0,.0L.0,-105.0L-213.0,-105.0" stroke-width="1" fill="none" stroke="#191919"/><path d="M-213.0,-102.0L-219.0,-105.0L-213.0,-108.0L-213.0,-102.0" stroke-linecap="round" stroke-width="1" fill="#191919" stroke="#191919"/></g><g id="shape103" transform="translate(133.216000,314.000000)"><path d="M.0,.0L112.8,.0L112.8,39.3L.0,39.3L.0,.0z" stroke-width="1" fill="#ffffff" fill-rule="nonzero" stroke="#000000"/><text xml:space="preserve" style="fill:#191919;font-family:Arial;font-size:10.00pt"><tspan y="24.7" x="21.9">Water vapor</tspan></text></g><g id="shape104" transform="translate(504.000000,639.000000)"><path d="M.0,.0L208.0,.0" stroke-width="1" fill="none" stroke="#191919"/><path d="M208.0,-3.0L214.0,.0L208.0,3.0L208.0,-3.0" stroke-linecap="round" stroke-width="1" fill="#191919" stroke="#191919"/></g><g id="shape105" transform="translate(567.000000,620.062292)"><path d="M.0,.0L84.0,.0L84.0,39.3L.0,39.3L.0,.0z" stroke-width="1" fill="#ffffff" fill-rule="nonzero" stroke="#000000"/><text xml:space="preserve" style="fill:#191919;font-family:Arial;font-size:10.00pt"><tspan y="24.7" x="17.5">Waste 2</tspan></text></g><g id="shape106" transform="translate(470.000000,692.000000)"><path d="M.0,.0L.0,27.0L221.0,27.0" stroke-width="1" fill="none" stroke="#191919"/><path d="M221.0,24.0L227.0,27.0L221.0,30.0L221.0,24.0" stroke-linecap="round" stroke-width="1" fill="#191919" stroke="#191919"/></g><g id="shape107" transform="translate(567.000000,700.562292)"><path d="M.0,.0L84.0,.0L84.0,39.3L.0,39.3L.0,.0z" stroke-width="1" fill="#ffffff" fill-rule="nonzero" stroke="#000000"/><text xml:space="preserve" style="fill:#191919;font-family:Arial;font-size:10.00pt"><tspan y="24.7" x="13.0">Solid urea</tspan></text></g><g id="shape108" transform="translate(742.000000,720.000000)"><path d="M.0,.0L250.0,.0" stroke-width="1" fill="none" stroke="#191919"/><path d="M250.0,-3.0L256.0,.0L250.0,3.0L250.0,-3.0" stroke-linecap="round" stroke-width="1" fill="#191919" stroke="#191919"/></g><g id="shape109" transform="translate(811.000000,697.712992)"><path d="M.0,.0L111.0,.0L111.0,39.4L.0,39.4L.0,.0z" stroke-width="1" fill="#ffffff" fill-rule="nonzero" stroke="#000000"/><text xml:space="preserve" style="fill:#191919;font-family:Arial;font-size:10.00pt"><tspan y="24.7" x="12.5">Cold solid urea</tspan></text></g><g id="shape110" transform="translate(156.509843,246.000000)"><text xml:space="preserve" style="fill:#191919;font-family:Arial;font-size:12.00pt;font-weight:bold"><tspan y="34.0" x="31.0">Pump 1</tspan></text></g><g id="shape111" transform="translate(504.019685,234.000000)"><text xml:space="preserve" style="fill:#191919;font-family:Arial;font-size:12.00pt;font-weight:bold"><tspan y="34.0" x="31.0">Pump 2</tspan></text></g><g id="shape112" transform="translate(898.259843,478.000000)"><text xml:space="preserve" style="fill:#191919;font-family:Arial;font-size:12.00pt;font-weight:bold"><tspan y="34.0" x="31.0">Pump 3</tspan></text></g><g id="shape113" transform="translate(315.759843,246.000000)"><text xml:space="preserve" style="fill:#191919;font-family:Arial;font-size:12.00pt;font-weight:bold"><tspan y="34.0" x="10.5">Crystallizer 1</tspan></text></g><g id="shape114" transform="translate(813.000000,114.000000)"><text xml:space="preserve" style="fill:#191919;font-family:Arial;font-size:12.00pt;font-weight:bold"><tspan y="34.0" x="10.5">Crystallizer 2</tspan></text></g><g id="shape115" transform="translate(694.016327,114.000000)"><text xml:space="preserve" style="fill:#191919;font-family:Arial;font-size:12.00pt;font-weight:bold"><tspan y="34.0" x="13.5">Centrifuge 1</tspan></text></g><g id="shape116" transform="translate(613.759893,368.850394)"><text xml:space="preserve" style="fill:#191919;font-family:Arial;font-size:12.00pt;font-weight:bold"><tspan y="34.0" x="13.5">Centrifuge 2</tspan></text></g><g id="shape117" transform="translate(196.859143,400.550365)"><text xml:space="preserve" style="fill:#191919;font-family:Arial;font-size:12.00pt;font-weight:bold"><tspan y="34.0" x="39.0">Dryer</tspan></text></g><g id="shape118" transform="translate(193.072566,652.000000)"><text xml:space="preserve" style="fill:#191919;font-family:Arial;font-size:12.00pt;font-weight:bold"><tspan y="34.0" x="28.0">Cooler 1</tspan></text></g><g id="shape119" transform="translate(659.759843,652.000000)"><text xml:space="preserve" style="fill:#191919;font-family:Arial;font-size:12.00pt;font-weight:bold"><tspan y="34.0" x="28.0">Cooler 2</tspan></text></g><g id="shape120" transform="translate(327.621475,554.337095)"><text xml:space="preserve" style="fill:#191919;font-family:Arial;font-size:12.00pt;font-weight:bold"><tspan y="34.0" x="22.0">Solid filter</tspan></text></g></g></svg>